<?xml version="1.0" encoding="utf-8"?>
<!-- Generator: Adobe Illustrator 18.0.0, SVG Export Plug-In . SVG Version: 6.00 Build 0)  -->
<!DOCTYPE svg PUBLIC "-//W3C//DTD SVG 1.1//EN" "http://www.w3.org/Graphics/SVG/1.1/DTD/svg11.dtd">
<svg version="1.1" id="Layer_1" xmlns="http://www.w3.org/2000/svg" xmlns:xlink="http://www.w3.org/1999/xlink" x="0px" y="0px"
	 viewBox="0 119.8 612 552.2" enable-background="new 0 119.8 612 552.2" xml:space="preserve">
<path fill="#A9D2DE" d="M623.7,271c0,127,0,254,0,381c-2.3,1.7-4.1,0.3-5.8-1.1c-2.3-1.8-2.3-1.8-3,0.9c-0.2,0.9-0.3,2.1-1.5,2
	c-1.1-0.1-1.3-1.3-1.3-2.2c0-2.1-1.3-2.5-3-3.2c-4.9-2-9.8-3.1-15.1-2.4c-1.1,0.1-2.2-0.3-3.5-0.9c0.2,1.8,0.4,3.5-1.8,4.3
	c-2.2,0.8-4-0.3-5.9-1.2c-0.3-0.1-0.5-0.5-0.4-0.8c0.5-5-1.8-9.8-1-14.9c0.2-1.5,2.2-2.1,1.2-4.2c-0.8-1.6,1.3-3.2,2.3-4.8
	c0.2-0.4,0.5-0.7,0.6-1.1c0.5-3.4,2.9-5,5.6-6.6c2.8-1.6,4.8-7.4,3.1-9.4c-2-2.3-4.3-4.5-7.7-4.9c-1.4-0.2-2.8-0.5-4.2-1.1
	c-2-0.8-3.9-1.8-5.3-3.7c-0.9-1.2-2.1-2.1-3.5-2.4c-2.3-0.6-4.5-1.5-6.1-3.4c-0.6-0.7-1.5-0.9-2.3-0.7c-5.5,1.4-9.9-0.3-13.5-4.6
	c-0.8-1-2-1.5-3.2-1.8c-4.1-1-8.3-1.8-12.3-3.1c-2.9-1-5.7-0.6-8.6-0.4c-1.2,0.1-1.8,0.8-2.4,1.6c-1.8,2.2-3.1,2.5-5.2,0.7
	c-1.2-1-2.3-1.3-3.7-0.9c-2.8,0.8-5.7,0.7-8.5,1.6c-4.1,1.2-7.5-0.6-10.7-2.8c-2.9-2-3.3-2.1-5.7,0.4c-1.8,1.9-3.7,2.2-6.1,1.2
	c-3.3-1.4-6.4-3.4-10-4c-1.2-0.2-2.4-0.4-3.6-0.2c-2,0.2-4.2,0.6-5.9-1.2c-1.5,4.5-2.4,5.2-7.2,5.2c-1.1,0-2,0.3-3,0.6
	c-1.8,0.5-3.5,0.1-5.1-0.8c-1.9-1-3.7-0.9-5,0.8c-1.4,1.8-3.7,2-5.3,3.6c-2.5,2.4-5.5,4.3-7.3,7.4c-0.7,1.2-2.2,1.9-3.5,2.5
	c-2.5,1.2-3.7,0.7-4.2-2c-0.3-1.9-1.4-2.7-3.1-2.7c-1.8-0.1-3.2-0.7-4.2-2.3c-0.5-0.9-1.3-1.3-2.3-1.4c-3.4-0.3-6.7-1.2-10.1-1.4
	c-4.5-0.3-8.6-1.4-11.5-5.6c-2-3-6.8-1.9-8.2,1.4c-1.1,2.4-3.3,3.6-5.8,4c-4.7,0.7-8.5,3.1-12.1,5.9c-1,0.8-0.9,2-1.4,3
	c-0.8,1.8-2,2.7-3.9,1.5c-1-0.6-2.1-0.7-3.1-1.3c-1.8-1.1-2.7-4.1-5.7-2.3c-1.9,1.2-4.2,1.2-6.1,2.8c-4.2,3.5-9.1,4.9-14.4,2.4
	c-2.5-1.2-5.3-0.5-7.9-1.1c-2.5-0.6-5.1-1.4-7.5,0.9c-1.2,1.1-3.2,0.3-4.9,0.4c-5.9,0.2-11.9,1.9-17.7-1c-0.8-0.4-1.4,0-2,0.5
	c-1.9,1.7-4.2,2-6.5,2.4c-3.3,0.6-6.8,0.9-9.6,3.1c-0.5,0.4-1.2,0.7-1.4,1.2c-1.9,5.1-7,5.8-11,7.6c-2.2,1-3.6,2.2-4.3,4.4
	c-0.4,1.1-0.8,2.1-1.4,3.1c-1.1,1.8-2.6,2.7-4.7,1.7c-2.3-1.1-2.8-0.1-2.4,2c0.4,2.4-0.3,4.5-2,6.2c-0.6,0.6-1.1,1.3-1,2.2
	c0.5,2.8-1.4,3.9-3.1,5.5c-4.3,3.8-9.7,6.5-12,12.2c-0.7,1.8-2.2,2.3-4.1,2c-1.6-0.2-3-0.8-4.5-1.3c-1.7-0.6-3.4-0.8-5.1,0.2
	c-1.7,1-3.2,0.1-5-0.3c-7.7-1.6-10.6-8.6-15.3-13.5c-3.7-3.8-8.2-6.6-12.5-9.6c-1.7-1.1-2.1-2-1.5-3.7c2.9-8.8,2-17.6,0.6-26.5
	c-0.7-4.7-2.1-9.9,0.6-14.7c0.7-1.2,0.3-2.3-0.5-3.5c-2.3-3.5-2.2-3.5,0.7-6.3c0.8-0.8,1.4-1.9,2.3-2c-1.5,0.7-3,2.1-4.1,3.5
	c-2.4,2.9-5,5.9-6.6,9.3c-1.2,2.4-0.7,5.1-0.7,7.6c0,3-2,4.7-3.5,6.7c-0.9,1.3-2,0.3-2.6-0.8c-0.7-1.1-0.6-2.6-1.9-3.5
	c-1.8,2.8-0.7,7.6-5.9,7.7c-0.3,0.1,0,0.1,0.1,0.1c0.8-0.5,1.6-0.5,2.1,0.4c1,1.5,0.3,2.7-0.9,3.8c-0.4,0.3-0.9,0.6-1.1,1.4
	c2.4,1.2,3.5,3.4,4.2,6c0.7,2.4-0.1,3.4-2.5,3c-2.6-0.4-4.9-1.6-7.1-2.9c-0.4-0.2-0.8-0.6-1.5-0.5c0.6,1.1,2.3,1.9,1.3,3.4
	c-0.9,1.3-2.2,1.4-3.6,0.9c-1.2-0.4-2,0-2.5,1.1c-1.2,2.4-3.1,2.3-5.3,1.5c-1.5-0.6-2.8-1.3-3.9-2.5c-2.2-2.5-5.2-3.6-8.5-3.8
	c-1.8-0.1-3.5-0.1-5.3-0.2c-2-0.1-3.5-0.8-4.7-2.6c-2-3.2-5.1-1.3-7.7-1.2c-2,0-2.6,1.8-2.9,3.5c-0.1,0.4-0.4,1-0.2,1.2
	c2,1.8,1.9,4.1,2.1,6.4c0.1,1.2,0.5,2.3,0.5,3.6c0,4.9-2,6.3-6.7,4.7c-1.9-0.7-3.6-1.8-5.5,0.5c-1,1.2-2.8,0.4-3.4-1.3
	c-1.6-4.9-5.7-5.4-9.9-5.8c-2.2-0.2-4.5-0.3-6.7-1c-2.3-0.7-4.6-1.2-7-0.8c-2.1,0.4-3.8-1.9-5.4-1.6c-1.5,0.3-1.2,3.3-2.9,4.4
	c-1.6,0.9-3.3,1.3-5.1,1.3c-4,0.1-7.4,1.4-11,3.4c-3.3,1.9-6.9,3.9-11.3,3.6c-3.6-0.3-6.4,1.3-8.6,4.4c-1.7,2.4-2.8,5-4.4,7.4
	c-1.2,1.9-2.7,2.5-4.7,1.5c-2.2-1.2-4.2-0.4-6.2,0.3c-0.8,0.3-1.2,0.8-1.3,1.6c-0.3,2.5-2.4,3.6-4,5.2c-4.1,4.2-8.3,5.7-13.9,3.3
	c-2-0.9-4.5-0.8-6.7-0.8c-1.2,0-2.3-0.2-3.1-1.2c0-126.8,0-253.6,0-380.4c0.5-1.4,0.6-2.9,0.9-4.4c0.1-0.8,0.2-1.5,0.9-1.8
	c2.7-1,1.7-2.2,0.3-3.5c-0.8-0.7-1.4-1.5-2.1-2.2c0-49.5,0-98.9-0.1-148.3c0-2.1,0.4-2.5,2.5-2.5c209.9,0.1,419.7,0.1,629.4,0
	c2.1,0,2.5,0.4,2.5,2.5c-0.1,50.5-0.1,101-0.1,151.4c-1.9,0.3-2.3-1.2-2.6-2.4c-0.5-2-1.8-3.4-3.4-4.6c-2-1.4-3.8-3.2-5.7-4.8
	c-3.7-3-8-3.7-12.5-3.9c-1.8-0.1-1.3,1.2-1.4,2.1c-0.4,2.7-2.4,4-4.2,2.3c-3.6-3.2-7.8-2.9-12-3c-4.3-0.1-4.6-0.1-5.6-4.3
	c-0.5-2.2-2.2-2.8-4.1-3.1c-1.1-0.2-2.1,0.1-3,0.5c-4.7,2-8.5-1.5-10.8-5.4c-1.2-2-1.8-1.9-3.1-0.6c-0.3,0.3-0.6,0.6-0.9,0.8
	c-0.8,0.6-1.6,1-2.6,0.7c-1.2-0.4-1.1-1.5-0.9-2.4c0.8-3.3-1.8-2.7-3.4-2.9c-2.1-0.3-3.6,0.4-3.8,2.8c-0.5,4.2-3.1,5.7-7.1,4.2
	c-2-0.8-4.1,0.4-6.1-0.4c-0.6-0.2-0.7,1.1-1.1,1.7c-1.4,2.4-3.1,2.7-4.9,0.7c-2.1-2.5-3.1-5.8-5.5-8.2c-0.9-0.9,0.1-2,0.8-2.7
	c1-1.2,1.1-2-0.7-2.3c-0.9-0.2-1.8-0.6-2.6-0.9c-0.8-0.3-1.2-0.2-1.8,0.6c-2.2,3.7-6.6,4.5-10,1.3c-2.5-2.4-4.8-3.4-7.9-1.2
	c-1,0.7-1.6,0.1-2.3-0.8c-1.6-2.2-2.2-2.2-4.2-0.4c-1.9,1.9-4.4,2.7-7,3.1c-1.4,0.3-1.9-0.6-1.7-1.9c0.2-1.1,0.8-2,1.6-2.6
	c3.3-2.4,5.6-5.8,8.7-8.4c1.8-1.5,3-6,2.2-7.7c-1.5-3.2-4-4.3-7.9-3.3c-1.7,0.4-3.2,0.4-3.5-1.8c-0.2-1.1-0.9-1.5-1.8-1.9
	c-1.2-0.6-1.8-1.3-1.2-2.7c0.2-0.5,0.4-1-0.2-1.3c-0.5-0.2-1,0.1-1.4,0.4c-1.3,1.1-2.4,2.3-2.9,3.9c-1.9,6.2-5.5,8.5-11.7,7.5
	c-0.7-0.1-1.6-0.3-2.1,0.2c-2.1,2.2-5.1,2.7-7.5,4.2c-2.8,1.7-5.1,3.8-4.2,7.6c0.4,1.7-0.5,2.7-2.1,3.2c-1.8,0.6-3.6,0.8-5.5,1.1
	c-3.2,0.5-4.1,2.8-2.2,5.5c0.5,0.8,1.3,1.3,1.9,2.1c0.6,0.9,1.3,1.8,0.4,2.8c-0.8,1-2,1.1-3.1,0.7c-0.7-0.2-1.3-0.7-1.9-1.1
	c-2.7-2-2.7-2-5.1,0.6c0.5,1.3,3,2.2,1.5,3.8c-1.3,1.4-3.2,0.1-4.6-0.6c-2-1-2.3-2.7-1.2-5.4c-1.6,1.9-1.8,4.1-0.8,6.6
	c0.6,1.5,0.1,3.1-0.1,4.6c-0.3,1.6,0.1,2.5,2,2.7c2.9,0.3,4.6,2.2,5.1,5.1c0.1,0.8,0.2,1.6,0.7,2.3c0.5,0.8,1.1,1.7,0,2.4
	c-1.1,0.8-2.2,0.4-3.1-0.4c-1-0.9-1.2-2.1-1.3-3.4c-0.1-0.8-0.3-1.6-1.2-1.5c-0.8,0.1-0.7,0.9-0.7,1.5c0.3,3.5-1.7,5.9-3.8,8.2
	c-1.8,1.9-4.7,2.1-6.7,0.6c-0.8-0.6-1.4-1.3-1.2-2.3c0.2-1,1.1-1.1,1.9-1.3c3.7-0.9,5.5-4.1,4.2-7.8c-0.5-1.4-0.8-2.8-0.8-4.2
	c0.1-3.2,0.7-6.3-0.5-9.5c-0.5-1.4,0.5-2.8,0.7-4.2c0.2-1.2,0.4-2.3-1.2-2.6c-1.5-0.3-2.7-0.1-2.9,1.8c-0.3,2.2-1.5,4-2.3,6
	c-1.1,2.6-0.9,5.6,0.3,8.3c0.5,1.2,1.4,2.3,1.8,3.6c0.4,1.4,0.1,2.7-1.1,3.6c-1.3,0.9-2.1-0.2-2.9-0.9c-2-1.8-4.1-3.4-6.6-4.6
	c-1.7-0.8-3.2-1.4-3.6,1.7c-0.3,2.8-2,3.4-5,2.9c-1.8-0.3-3.7,0.2-5.4,1c-1,0.5-2.1,1-2.9,0.2c-1.8-1.9-3.1-0.6-4.5,0.4
	c-2.1,1.5-4.4,2.6-5.7,5.1c-0.7,1.5-2.5,2-4,1.1c-1.5-0.9-2.4-2.3-1.9-4.2c0.2-0.8,0.8-1.4,0.8-2.2c-0.5,1.6-1.5,3-0.5,5
	c1,2.1-0.2,3.9-2.6,4.1c-2.7,0.2-4.1,1.7-4.8,4c-0.3,0.8-0.3,1.8-1.1,2.1c-1.6,0.7-3.5,0.7-3.7,3.3c0,0.8-1.8,0.8-2.8,0.3
	c-2.1-1-3.7-2.4-4-4.8c-0.3-2.4-0.8-4.6-2.6-6.3c-0.7-0.7-1.3-1.8-0.6-2.8c0.8-1.1,1.9-0.4,2.8-0.1c2.1,0.8,4.1,1.9,6.3,2.5
	c1.9,0.6,3.5,0.4,4.6-1.4c1.1-1.9,0.2-3.4-1.4-4.5c-1.6-1.2-3-2.6-4.5-3.8c-1.5-1.3-3.1-2.1-5.1-1.4c-1.5,0.5-2.5,0.1-2.8-1.4
	c-0.4-1.9-1.5-2.1-3.1-2c-1.5,0-2.9-0.7-3.5-2.1c-0.5-1.2,0.9-1.4,1.4-2.3c-5.8-0.5-10.1,1.5-14.6,4.9c-3.4,2.6-5.6,5.9-8.1,9
	c-2.4,3-5.2,6-5.9,10.1c-0.3,1.6-1,2.9-2.2,4c-0.4,0.3-1.1,0.6-0.8,1.2c1.4,2.9-0.9,3.3-2.8,3.9c-2.2,0.7-3.9,1.9-4.8,4.1
	c-0.2,0.6-0.7,1.3-0.4,1.8c1.8,2.2,0.1,4.3-0.3,6.3c-0.2,0.9-0.5,1.8-0.3,2.7c0.3,1.6,1.2,1.9,2.4,1.1c1.1-0.8,2.1-1.7,2.7-2.9
	c0.4-0.7,0.8-1.5,1.8-1.5c1.1,0.1,1.5,1,1.8,1.9c1,2.8,1.9,5.7,2.9,8.5c0.9,2.2,1.9,2.5,3.5,0.7c0.6-0.6,0.9-1.4,1-2.2
	c0.1-2.6,1-4.8,2.8-6.7c0.8-0.9,0.9-1.9,0.2-3.1c-2.6-4.2-2-8.6,1.7-12c2.1-2,3.9-3.9,4.3-6.9c0.2-1.6,1.2-2.9,2.7-3.5
	c1.9-0.7,3.7-0.6,5.2,0.9c1.5,1.6,0.9,3.3-0.1,4.8c-1.4,2.2-3.2,4-4.7,6.1c-0.9,1.3-1.2,6.9-0.3,8c1,1.3,2.4,1.9,4.2,1.4
	c1.4-0.4,2.7-0.9,4.2-1.2c1.7-0.3,3,0.2,4.3,1.2c1.4,1.1,1.7,2.1,0,3.5c-1.9,1.5-3.5,2.6-6,1.6c-2-0.7-2.8,0.3-2.4,2.4
	c0.8,3.8,0,4.8-3.8,4.9c-1.7,0.1-1.4,1.2-1.4,2.2c0,5.3-1.6,6.6-6.7,6.3c-2.3-0.1-4.2,0.9-5.4,3c-1,1.9-2.1,2.1-2.9,0
	c-0.9-2.2-2.7-1.4-4.2-1.8c-1.5-0.5-2.9-1.2-3.8,0.9c-0.2,0.5-0.7,0.8-1.3,0.9c-3.6,0.2-5.2,2.9-7.1,5.4c-2.4,3.3-8.9,7.7-12.6,8.9
	c3.7,2.5,5.2,5.8,4.1,10.1c-0.5,2.1-1.6,3.2-3.9,3.1c-2-0.1-3.9-0.3-5.9-0.6c-1.9-0.2-3.2,0-3.2,2.5c0,1.5-0.2,3.1-0.6,4.6
	c-1.4,4.8,2.2,6.5,6.1,6.4c3.6-0.2,6.7-1.4,7.2-5.8c0.1-1.3,0.9-2.4,1.9-3.1c1.9-1.4,3.9-2.6,4.6-5.2c0.3-1,1.5-1.5,2.6-1.3
	c2.2,0.3,4-0.5,5.9-1.4c2.1-1.1,4.1-0.7,5.4,1.4c1.6,2.5,3.8,4.3,6.3,5.8c1.6,1,2.9,2.3,3.3,4.1c0.9-2-0.3-3-2-3.9
	c-2.7-1.4-4-4.1-5.5-6.5c-0.8-1.3-0.8-2.8,0.4-4c1.3-1.3,2.8-0.8,3.9,0.3c2.6,2.7,5.8,4.9,8.7,7.3c1.1,0.9,1.3,2.3,1.7,3.6
	c0.5,2,1.4,3.9,3.4,4.9c-0.3-3.8,1.7-5.9,6.1-5.6c2.3,0.1,2.6-0.3,2.8-2.7c0.3-4.1,2-8,5.7-10.5c2.1-1.5,4.7-0.6,6,1.9
	c0.3,0.6,0,1.5,1.2,2.1c-1.4-2.3-0.3-3.5,1.4-4.4c1.4-0.8,2.8-1.4,4.3-1.8c1.1-0.3,2.1-0.2,2.8,0.7c0.6,0.8,0,1.6-0.4,2.3
	c-1.7,3.4-1.7,3.4,1.5,5.4c2.9,1.9,4.5,4.6,3.9,6.4c-0.6,2-3.3,3-7,2.6c-0.6-0.1-1.3,0-1.8-0.3c-5.7-3.7-10.6,0.1-15.7,1.8
	c-2,0.6-1.7,2.1-1.1,3.5c0.6,1.4,2,2.8,3.2,2.6c2.9-0.4,5.6,1.3,8.5,0.2c3.1-1.1,4.2,0,4.1,3.2c-0.1,3.1-1.4,6-1.1,9.2
	c0.1,0.9-0.3,2-1.6,1.7c-2.5-0.6-2.6,0.7-2.3,2.5c0.1,0.6,0.2,1.2,0,1.9c-0.1,0.3-0.3,0.5-0.5,0.7c-2.3-0.2-2.5-2.1-3-3.7
	c-0.4-1.2-0.7-2.2-2.3-1.8c-4.3,1.2-8.2-0.3-12-1.9c-3.7-1.6-3.6-1.7-5.6,1.7c-0.9,1.5-2.1,2-3.6,1.6c-2.3-0.7-4.6-1.3-6.4-3
	c-1.3-1.2-2.7-1.7-4.5-1.6c-2.7,0.2-4.9-2.5-4.4-5.3c0.2-1.2,0.8-2.3-0.2-3.4c-0.3,0-0.5,0.1-0.6,0.3c-0.6,1.1-0.2,3.1-1.9,3.2
	c-1.3,0.1-1.2-1.7-1.7-2.6c-0.3-0.7-0.9-0.9-1.5-0.9c-3.9,0-8-0.4-11.3,2.1c-2.2,1.6-4.4,2-7,1.4c-1.7-0.4-3-0.1-3.9,1.5
	c-0.5,0.8-1.2,1.4-2,1.9c-1.9,1.1-2.8,2.8-3,4.8c-0.3,2.7-1.8,4.6-4,5.9c-3.7,2.1-4.9,6-6.9,9.3c-0.5,0.9-0.1,1.3,0.7,1.6
	c1.8,0.7,2.2,1.8,0.2,2.6c-1.6,0.6-1.7,1.6-1.4,2.9c0.5,2.2,0.1,4.3-0.6,6.4c-0.9,2.9-0.2,5.5,2.1,7.5c1.7,1.4,2.9,3.1,4.1,5
	c1.8,2.8,4.7,4.2,7.4,6c0.2,0.1,0.4,0.2,0.6,0.2c4.6-1.8,9.7,0.6,14.1-2.2c3.5-2.2,6.9-1.6,9.9,1.2c1.1,1,2.2,1.3,3.6,1.5
	c3.5,0.5,4.8,2.2,4.6,5.7c0,0.4,0,0.9-0.2,1.2c-1.5,3.8,0,6.5,3,8.8c2.5,2,2.6,5.3,3.4,8.1c1,3.5,1,7-1.1,10.4
	c-1.7,2.8-1.7,6.1,0.1,9.2c1.9,3.1,3.3,6.5,3.5,10.2c0.2,4.3,3.1,7.4,4.7,11c0.7,1.7,1.5,3.4,1.7,5.3c0.1,2.1,1.3,3,3.3,2.5
	c2.2-0.5,4.5-0.7,6.7-0.9c1.8-0.1,3.5-0.7,4.8-2c3.8-3.6,7.6-7.3,8.4-12.9c0.2-1.6,1.3-2.6,2.7-3.2c1.7-0.8,2.4-2.2,1.8-3.8
	c-1.9-4.9,0.9-7.6,4.4-10c0.9-0.6,1.7-1.1,2.6-1.7c1.6-1,2-2.3,2.1-4.1c0.3-4.1-1.5-7.7-2.3-11.5c-1-4.1,0.5-7.1,2.8-9.9
	c2.6-3.1,5.4-6.2,8.9-8.6c4.2-2.9,7.5-8.6,8.7-13.7c-2.7-0.1-5.3,0.7-7.9,1.1c-2,0.3-3.8,0.2-4.5-2.1c0-1.5,1.4-2,1.9-3.2
	c2.7-2.6,6.6-2.6,9.8-4.4c2.9-1.6,5.8-3.5,9-4.8c3.1-1.2,4.4-4.5,6.3-7c0.5-0.7,0.4-1.4-0.3-1.9c-1.4-0.9-2.8-1.7-3.9-3
	c-0.7-0.9-1.2,0.1-1.8,0.4c-4,2.3-7.1,1.5-9.3-2.6c-1.1-2-2.6-3.7-3.4-5.9c-0.5-1.5-1-3.1,0.7-4.2c1.6-1,3.2-0.5,4.5,0.8
	c0.8,0.7,1.2,1.7,2,2.4c1.8,1.8,3.6,3.5,6.5,2.6c1.4-0.4,2.6,0.2,3.6,1.3c0.9,1.1,2,1.8,3.5,1.7c2.4-0.1,5,0.5,7.3,0.2
	c3.5-0.4,6.4,1,9.5,2.1c2,0.7,1.8,2.7,2.3,4.1c0.6,1.4,0.9,2.1,2.5,1.8c1.9-0.4,2.8,0.8,2.9,2.4c0.4,6.8,3.7,12.6,6.1,18.7
	c0.7,1.8,1.4,1.8,2.6,0.5c1.6-1.8,2-4.1,2-6.4c0-2.7,1.2-4.6,3.3-6.3c3.3-2.7,6.6-5.3,9.3-8.6c1.8-2.1,8.7-3.4,11.1-2.2
	c0.4,0.2,0.9,0.4,0.9,0.8c0,3.2,2.8,5.3,3.1,8.3c0.1,0.9,0.2,2.1,1.7,1.4c2.1-1,3,0.3,3.8,1.9c1,1.8,1.2,3.7,2,6
	c1.1-1.9,2.6-1.4,4.2-1.5c2.2-0.1,2.4,1.4,3.2,2.7c1,1.7,2,4.1,4.5,3.2c3.9-1.4,5.1-4.1,3.9-7.2c-0.6-1.7-2.1-2.8-3.2-4.1
	c-2.3-2.7-2.7-4.8-1.4-7c1.6-2.6,3.7-3.5,7.1-2.8c0.3,0.1,0.6,0.3,0.9,0.2c5.7-2.5,12.1-3.3,15.9-9.7c3.4-5.7,3.1-10.2-0.2-15.3
	c-1.8-2.7,0.7-4.3,2.6-6c-2.4,1-3.9-0.2-5.1-2c-1-1.5-0.7-2.9,0.7-3.8c2.2-1.3,3.7-5.2,6.9-3.3c1.5,0.9,2.6,1.9,4.4,1.9
	c0.6,0,1.4,0.3,1.6,0.9c0.8,2.5,3.7,4.2,3.1,7.4c-0.1,0.7-0.5,2.2,1.1,2c1.2-0.1,1.5-1.3,1.4-2.4c-0.1-1.2-0.8-2.1-1.5-3
	c-1.6-2.2-1.6-4.2,0.6-6c0.9-0.8,1.5-1.7,1.9-2.8c1.1-3.3,1.9-4,5.5-3.8c2.4,0.1,3.8-1,5.2-2.6c2.7-3.2,5.2-6.6,6.8-10.3
	c1.6-3.6,2-7.7,2.2-11.7c0.1-1.7-0.9-2.6-2.8-2.1c-2.2,0.5-5.1-1.2-6.2-3.2c-0.7-1.4-0.1-2.4,0.8-3.3c3.3-3.4,6.4-7,9.4-10.7
	c1.7-2,3.7-2.9,6.3-2.7c2.7,0.1,5.4,0.1,8-0.8c1.8-0.6,3.6-0.3,5,1c1.8,1.8,2.8,0.7,3.5-0.8c0.7-1.9,2-3.3,3.1-5
	c1.1-1.6,2.4-2.8,4.4-3.2c1.9-0.4,3.7-0.4,4.8,1.7c0.4,0.8,1,0,1.5-0.3c1.1-0.7,1.3-2,2.1-3c0.8-1,1.8-1.5,3-0.9
	c1,0.5,1,1.5,0.8,2.4c-0.5,2.5-1.3,4.9-3.3,6.8c-3.4,3.1-6,7.1-9.4,10.3c-2,1.9-2.8,4.6-2.4,7.4c0.4,2.6,0.5,5.3,1.5,8.4
	c2.7-4.8,6.5-8.3,8.3-13.2c0.5-1.3,0.3-2.4-0.1-3.6c-1.3-4.1,0.8-8.3,4.9-9.5c3-0.9,6-2.3,9.4-1.5c1.2,0.3,2.1-0.8,2.9-1.6
	c3-3.2,6.5-5.4,10.8-6.2c1.1-0.2,1.3-0.7,1-1.7c-0.5-1.7-1.6-3.1-2.8-4.4c-0.8-0.8-1.3-1.7-0.7-2.8c0.7-1.2,1.7-1,2.7-0.5
	c1.1,0.6,1.9,0.4,2-0.9c0.3-1.6,2.2-1.8,2.5-3.5c0.1-0.6,1.3-0.8,1.9-0.3C618.4,266.3,622.3,267.3,623.7,271z"/>
<path fill="#F1EEE8" d="M-10.5,652.6c5.6,0.2,11.2-0.1,16.2,2.8c0.9,0.5,1.4,0,1.8-0.7c1.7-2.4,4.1-4,6.6-5.4
	c2.6-1.5,1.9-4.1,2.2-6.6c1.2,0.7,2.1,1.6,3.5-0.1c0.9-1.1,3.4-0.5,5.2,0.6c1.4,0.8,2.4,1.6,3.3-1.2c1.1-3.4,3.4-6.7,5.8-9.3
	c2-2.2,5.5-3.7,9.1-3c1.8,0.4,3.6,0.5,4.9-1.4c0.5-0.7,1.6-0.9,2.6-0.7c1,0.2,2-0.1,2.6-0.8c2.9-3.6,7.1-3.8,11.2-4
	c5-0.2,5.3-0.4,6.4-5.4c0.4-2.1,1.7-1.7,2.6-0.6c1.7,2,3.4,2.4,6,1.8c1.6-0.4,3.5,0,5.2,0.6c2.9,1,5.7,1.2,8.9,1
	c1.7-0.1,4.5,0.9,6.3,2c1.5,0.9,2.6,2.8,2.8,4.6c0.2,1.3,0.6,1.6,1.7,1.5c1.4-0.1,1.4-1,1.2-2c-0.3-1.6,0-1.7,1.6-1
	c2.2,1.1,4.4,2.4,7.1,2.3c0.7,0,1.4,0,1.9-0.8c0.9-1.5-0.6-3,0-4.1c1.1-1.9,0.2-2.5-1.3-3.3c-1.1-0.6-1.4-1.5,0.4-1.6
	c0.6,0,1.3,0.2,1.3-0.8c0-0.5-0.3-1.1-0.9-1.2c-1.6-0.2-2.8-1.4-2.1-2.7c1-1.9,0.2-5,3.4-5.6c2.6-0.4,5.2-0.6,7.9-0.4
	c0.9,0.1,1.8,0.6,1.9,1.4c0.3,2.8,2.3,2.7,4.3,2.8c3.7,0.1,7.5-0.3,11,1.9c1.1,0.6,2.2,1,2.8,2.2c1.2,2.5,3.8,2.6,5.9,3.3
	c1,0.4,1.4-0.6,1.8-1.6c0.6-1.6,0.9-4.5,3.6-1.7c1.1,1.1,1.8-0.4,2.8-0.3c0.3,0,0.3-0.7,0.1-1.1c-0.8-1.1-1.7-0.3-2.7,0
	c-0.1-1.4,0.9-2.7-0.2-4c4.7,1.1,7.9,4.8,12.8,4.6c-0.1-2-1.9-3.2-1.8-5.2c0-1.1-0.9-1.2-1.8-1.2c-1,0-1.9-0.2-2.1-1.4
	c-0.3-1.4,0.9-1.7,1.8-2.2c0.5-0.3,1.2-0.5,1.6-1c0.5-0.6,0.5-1.4,0-2c-0.5-0.7-1-0.3-1.6-0.1c-1,0.4-2,1.1-3.4,0.7
	c0.5-1.1,1.6-1.4,2.4-1.6c4.4-0.9,4.8-4.2,4.9-7.7c0-1.1,0.5-1.4,1.4-1.7c1.2-0.4,1.7,0,2.1,1.1c0.5,1.7,1.1,3.3,1.7,5
	c3.5-3.9,4.5-8.1,3-13.1c-0.5-1.7,1.4-1,1.5-1.8c0.5-3.1,3.5-4.7,4.8-7.4c1-2.3,4.3-3.2,6.1-5.3c0.8-0.9,2-1.3,3.3-1.7
	c-0.9,1.1,0,3.2-2.8,3.4c-1.2,0.1-2.2,2.1-3.5,3.2c-1,0.9,0.5,2,1.2,2.7c2,1.8,2.3,3.7,0.6,5.8c-1.5,1.8-1.1,3.6-0.7,5.6
	c0.1,0.7,0.9,1.5,0.7,2c-1.8,5.8,0.6,11.2,1.5,16.7c0.8,5.3-1.9,9.8-1.5,14.8c0.1,0.9-1.1,1.9-1.8,3c3.5,0.1,5.1,3,7.6,4.4
	c5.3,2.8,8.4,8,12.7,11.9c0.8,0.7,1.2,1.7,1.5,2.6c0.3,1,0.8,1.8,1.6,2.2c2.7,1.2,6.1,1.1,8.3,3.6c0.1,0.1,0.9-0.1,1.1-0.3
	c3.1-2.8,6.1-1.1,9.2,0c2.6,1,4.6,1.2,5.6-2.2c0.7-2.4,2.6-4.1,5-5.6c3.2-2,5.3-5.7,9.1-7.3c1.1-0.5,1.1-2,0.4-2.7
	c-1.5-1.5-0.5-1.7,0.6-2.5c2.5-1.7,3-4.2,2.1-7.1c-0.3-1-0.9-2.1,0.4-2.7c1-0.5,2.3-0.8,3.2,0.2c2.4,2.4,3.4,0.4,4.3-1.4
	c0.6-1.1,0.7-2.4,1.3-3.5c0.9-1.8,1.5-3.4,4.3-3.7c3-0.4,5.3-3.3,8.6-3.7c0.3,0,0.7-0.5,0.9-0.9c2.2-7.2,8.7-6.8,14.2-7.8
	c2.1-0.4,4.3-0.5,5.4-2.9c0.5-1.2,1.5-1.1,2.3-0.5c3.2,2.3,6.6,2.6,10.4,1.9c2.4-0.5,5-0.1,7.5-0.4c2.5-0.3,5,0.5,6.7-2.2
	c0.4-0.6,1.5-0.2,2.3,0c2.8,0.8,5.5,1.8,8.6,1.1c2.1-0.5,3.6,1.8,5.9,2.1c2.5,0.3,9.2-1.4,10.3-3.6c0.6-1.2,1.7-1.6,2.3-1.7
	c1.9-0.2,3.4-0.3,4.5-2.2c0.5-0.8,1.9-0.2,2.4,0.6c1,1.4,3.1,1.3,3.6,3.2c0.1,0.6,0.8,0.6,1.2,0.1c1-1.2,1.3-0.2,1.7,0.5
	c0.2,0.5,0.2,1.3,1.1,1.3c0.8-0.1,1.4-0.9,1.4-1.5c-0.3-4.5,3.8-5.2,6.3-7.2c1.8-1.4,4.5-1.4,6.1-3.3c0.5-0.6,1.1,0.1,1.6,0.4
	c1.7,0.7,2,0.4,2.2-1.5c0.1-1,0.1-1,3.2-0.2c-1.5-3.2,0.6-4.4,3-5.1c2.8-0.8,7.1,0.5,8.2,2.2c0.5,0.8-1.1,2,0.7,2.5
	c3.3,1,6.4,2.7,10,2.4s7.2,1.7,10.9,1.2c0.1,0,0.3,0.1,0.3,0.1c0.4,3.8,3.3,3.3,6,3.7c1.9,0.3,2.7,1.8,2.4,3.7
	c-0.1,0.6-0.7,1.2,0.1,1.7c0.7,0.4,1.3,0,2-0.4c2.2-1.4,4.8-2.3,5.4-5.5c0.2-0.9,1.3-1.6,2.2-2c1.5-0.8,2.8-2.6,3.9-3
	c2.8-1.2,4.5-3.8,7.2-4.8c1.1-0.4,2.2-0.1,3.3,0.5c0.4,0.2,0.7,0.4,1.1,0.6c0.9,0.5,10.4,0.1,11.1-0.6c1.3-1.2,1.9-2.6,1.8-4.4
	c-0.1-0.9,0.4-1.8,1.3-1.9c1.2-0.1,0.7,0.8,0.7,1.5c-0.1,1.3,1.5,1.8,1.9,1.5c1.5-1.3,3.6,1.1,4.8-1.1c0.3-0.6,1,0.3,1.5,0.6
	c0.9,0.5,1.7,1.8,2.8,0.4c0.4-0.4,0.7-0.5,1,0c2.1,3.1,6,2.8,8.9,4.7c1.6,1.1,2.8-0.7,3.7-1.9c2-2.8,3.8-2.9,6.4-0.7
	c3.5,3,7.4,4.2,12.1,2.6c2.7-0.9,5.9-0.7,8.7-1.8c0.9-0.3,1.8,0.6,2.5,1.5c1.5,2,2.9,2,3.7-0.3c0.7-1.9,1.8-1.8,3.4-2.1
	c6.7-1.3,12.6,2.4,18.8,3.1c3.9,0.4,5.9,2.9,8.5,5.1c2.6,2.1,6,3.2,9.6,1.5c1.2-0.6,2.6-0.2,3.6,1c0.5,0.6,0.8,1.6,1.3,1.7
	c6,0.8,9.1,6.1,13.9,8.5c0.6,0.3,1.4-0.1,2.1-0.1c4.8,0.1,7.3,4.1,10.8,6.4c0.2,0.1,0.4,0.7,0.3,0.8c-2,2.4-0.7,5.8-2.7,8.2
	c-0.5,0.7-0.9,1.2-1.8,1.4c-3.1,0.8-4.3,3.3-5.3,6.1c-0.7,1.9-2.5,3.6-3.9,5.6c1.1,0.9,2.9,0.1,3.9,1.9c-3.9-1.2-4.4,1-4.2,3.8
	c0.2,3.3-0.9,6.7,1.4,9.7c1.1,1.4-0.2,2.4-1.2,3.7c1.3,0.2,3-1.3,3.3,1.1c0.1,0.5,2-0.7,3.2-0.6c0.6,0.1,0.7-1.1,0.1-1.8
	c-0.9-1,0.6-2-0.1-3.1c2.2,1.4,4.3,1.7,6.8,1.4c3.7-0.5,7.4-0.1,10.8,1.7c0.5,0.3,1.1,0.7,1.7,0.7c3.7,0.1,6,1.4,5.1,5.7
	c0-0.7-0.1-1.4,0-2.1c0.1-1.1-0.6-2.6,0.9-2.9c1.2-0.3,2.7,0.2,3.3,1.3c1.3,2.4,3.5,2.5,5.8,2.8c0,9.5,0,19,0,28.6
	c0,1.6-0.4,2.1-1.9,1.9c-0.3-0.1-0.6,0-0.9,0c-209.5,0-419.1,0-628.7,0.1c-2.3,0-2.9-0.5-2.8-2.8C-10.4,670.6-10.5,661.6-10.5,652.6
	z"/>
<path fill="#F1EEE8" d="M623.7,271c-1.4-0.6-2.9-0.9-3.4-2.8c-0.3-1-1.4-1.4-2.6-1.1c-1,0.3-1.8,0.1-2.1-1.2
	c-0.1-0.6,0.1-1.8-1.1-1.4c-1,0.3-1,1.2-0.6,2c0.4,0.8,0,1.4-0.6,2.1c-0.2-0.8-0.3-1.3-0.4-1.8c-0.6-0.1-0.4,0.4-0.4,0.6
	c-0.1,1.2,0.1,2.5-1.5,3.1c-1.3,0.5-1.9-0.4-2.5-1.2c-0.3-0.5-0.9-0.8-1.3-0.3c-0.7,0.7-0.4,1.3,0.4,1.8c2.5,1.5,3.2,4.1,4.2,6.5
	c0.7,1.5,0.1,2.3-1.5,2c-4.1-0.7-6.6,2.1-9.5,4c-1.3,0.8-2.3,2-3.4,3.1c-1,1-1.7,1.4-3.2,0.3c-2.2-1.6-4.2,1-6.5,1
	c-3.7,0-4.9,3.3-6.1,6.1c-0.3,0.6-0.3,1.2,0.3,2c1.3,1.9,2.4,3.9-0.1,5.7c-0.1,0.1-0.2,0.2-0.2,0.2c0.2,3.2-2.6,4.6-3.9,6.9
	c-1.2,2.1-2.5,4.1-3.8,6.1c-0.3,0.5-0.8,1.1-1.5,0.9c-0.7-0.2-0.7-0.9-0.7-1.6c-0.4-3-1-6.1-1.3-9.2c-0.4-4.1,1.3-7.3,4.5-9.9
	c2.5-2,3.9-5.1,6.2-7.2c2.2-2.1,4.3-4.1,4.3-7.4c0-0.6,1.3-1.2,0.1-1.7c-0.8-0.3-2.1,0.1-2,0.9c0.2,3-2.6,3.4-3.9,5.1
	c-0.8,1.1-1.4,0.3-1.7-0.6c-0.6-2.8-2-3.6-4.7-2c-2.4,1.5-3.7,4.4-5.4,6.6c-0.5,0.7,0.6,1.2,0.7,2.1c-1.3,0.3-2.7,0.6-4.1,0.9
	c-1.1,0.3-0.8-0.2-1.2-0.9c-0.8-1.5-3-2-4.6-1.2c-2.2,1.1-4.4,1.1-6.6,0.8c-3.4-0.4-5.9,0.6-8,3.4c-2.7,3.6-5.5,7.2-9,10.1
	c-1.1,1-1.3,1.9,0.4,2c1.5,0.1,0.8,1.7,2,2c0.8,0.2,1.2,1.2,2.4,0.3c2-1.5,4.7,0.1,4.5,2.8c-0.5,7-2,13.7-6.4,19.4
	c-1.2,1.5-2.3,2.9-3.5,4.3c-1.5,1.7-2.7,3.5-5.7,2.3c-0.8-0.3-3.7-0.5-4.1,2.3c-0.2,1.4-0.6,3.2-2.1,3.9c-2.9,1.3-2,3-0.6,4.8
	c1.1,1.4,2,2.8,1.8,4.8c-0.2,1.6-2.8,3.6-4.2,3.2c-0.8-0.2-0.9-0.7-0.8-1.4c0.1-1.3,0.4-2.7,0.1-3.9c-0.6-2.1-2-3.9-3.1-5.7
	c-1.1-1.7-3.3,0.5-5,0.8c-0.7-0.7-0.1-1.2,0.2-1.7c0.4-0.7,0.6-1.4-0.3-1.9c-0.6-0.4-1.2-0.2-1.7,0.2c-1.6,1.4-3,3.1-5,4
	c-0.8,0.4-0.6,1.4,0.1,1.8c1.4,0.7,2,3.6,4.4,1.4c0.5-0.4,2,0.4,3.5,0.7c-1.4,0.8-2.4,1.3-3.2,1.9c-1.9,1.4-3.7,2.4-1.1,5.2
	c1.5,1.6,2.7,4,2.1,6.9c-0.3,1.4,1.2,3.4-0.1,4.7c-3,3-3.8,7.9-8.2,9.8c-2.8,1.2-5.7,2.3-8.5,3.2c-1.3,0.4-2.6,0.5-3,3.3
	c-0.8-3.7-2.6-3.6-4.4-2.8c-2.5,1.1-4,4-3,5.7c0.8,1.5,2,2.8,3.3,4c3.7,3.4,3.2,7.7-1,10.3c-1.4,0.9-2.1,2.6-4.1,2.9
	c0.1-1.7-0.7-2.8-2.3-3.3c-0.3-0.1-0.6-0.3-0.7-0.6c-0.5-1.2-0.9-2.5-1.3-3.7c-1.2,1.3-2,1.2-3.1-0.3c-0.7-0.9-1.1,0.4-1.4,0.9
	c-0.4,0.9-0.2,2.1-1.6,2.4c-0.8-2.8-1.6-5.6-2.4-8.3c-0.4-1.3-0.8-2.8-2.6-0.9c-0.6,0.6-1.5,1.2-2.5,0.7c-1.1-0.5-0.3-1.5-0.4-2.2
	c-0.2-1.9-0.4-3.9-1.9-5.1c-1.8-1.3-1.9-2.5-0.7-4.2c-2.1,0.3-4-0.5-6-0.1c-2.2,0.5-4.2,0.6-5.4,3.2c-0.8,1.9-3.3,2.6-4.8,4.1
	c-1.6,1.7-3.2,3.5-5.5,4.5c-1.6,0.7-1.2,2.2-1.2,3.5c-0.1,3.3-0.6,6.4-3.1,9c-1.8,1.9-2.7,1.2-3.3-0.5c-2.3-7-6.7-13.3-6.5-21.1
	c0-1.3-0.5-1.4-1.8-0.9c-2.6,1.1-3.6,0.3-3.2-2.3c0.1-0.6,0.1-0.8-0.4-0.8c-2.5-0.2-1.9-1.4-0.1-3.4c-2.5,1-3.7,0.6-4.9-0.7
	c-1.7-1.9-3.9-0.4-5.9-0.6c-3.1-0.3-6.8,0.6-9.2-0.9c-2.7-1.6-4.9-2.5-8.2-2.4c-1.6,0.1-3.9-1.7-4.9-3.8c-0.3-0.7-0.7-1.3-1.2-1.8
	c-1-1.2-2.4-1.3-3.6-0.6c-1.1,0.7-0.5,1.9,0,2.8c1.2,2.6,3,4.9,4.4,7.3c1.6,2.7,4.9,2.7,7.3,0.5c0.6-0.5,1.2-1.1,1.9-1.8
	c0.5,2.3,1.9,3.4,3.9,4.1c2.9,1.2,3.2,2.3,1.1,4.5c-2.1,2.2-3,5.4-6.1,6.6c-5.3,2.2-9.7,6.2-15.5,7.4c-1.6,0.3-2.8,1.2-4.2,1.8
	c-0.7,0.8-1.3,0.3-1.8-0.2c-0.8-0.9-1.5-2-1.4-3.1c0.4-4.6-3.1-7.1-5.2-10.3c-0.5-0.7-1.2-1.3-1.4-2c-1.2-5.2-5.4-8.8-7.3-13.5
	c-0.2-0.5-1.8,0.8-2-0.7c-0.3-1-0.8-1.9-1-2.9c-0.1-0.8-0.9-2.1,0.6-2.3c1.2-0.1,2.7-2.5,3.9,0.4c-1.4-4.4,1.6-8.3,0.9-12.6
	c-0.9,0-2-0.6-3,0.3c-1.5,1.3-2.9,1.3-4.4-0.1c-0.4-0.4-1.2-0.7-1.7-0.3c-2.5,2.3-4-0.3-5.7-1.2c-2-1.2-1.2-3.7-1.7-5.7
	c-0.1-0.2,0.4-0.8,0.8-0.9c3.9-1.1,7.7-2.6,11.5-4.1c1.1-0.5,2.4,0,3.5,0.7c2,1.4,4.4,1.8,6.8,1.7c1.7-0.1,3.7-0.1,4.1-2
	c0.4-1.8-1.2-3.1-2.6-4.3c-0.5-0.4-1.1-0.6-1.6-1c-3.8-2.7-3.9-2.9-3.4-3.4c1.2-1.4,1.2-3.5,2.9-4.6c-3-0.3-5.7,0.9-7.7,2.6
	c-1.5,1.3,0.8,1.9,1.9,2.4c-3.5,1.8-3.5,1.8-4.1-1.7c-0.2-1.1-3.4-2.4-4.3-1.7c-3.1,2.4-4.3,6.1-5.8,9.5c-0.6,1.5,1,2.3,1.4,3.7
	c-1.7,0.7-3.3,1.2-5.3,0.5c-2-0.7-3.2,1.6-5.1,1.8c0.5,1.5,0,3.4,1.9,4.5c-5.2-0.7-6.7-2.3-7.3-7.2c-0.3-2.8-3-3.8-5.1-5
	c-1.4-0.8-2.5-1.6-3.1-3.2c-0.5-1.5-2.2-1.5-3.4-2.1c-0.4-0.2-1.1,0.4-1.3,1.1c-0.3,1.4,0.4,2.4,1.2,3.6c2,3.3,5,5.3,8.6,7.5
	c-4.3,0.3,0.3,4.7-3.3,5.2c1-3.2-1.5-4.9-3.6-6.3c-2.7-1.7-5.1-3.3-6.5-6.3c-1.2-2.4-3.1-1.7-4.7-0.5c-1.8,1.3-3.3,2.2-5.6,1.1
	c-1.3-0.6-2.4,0.3-2.3,1.6c0.1,2.2-1.3,2.9-3,3.7c-1.9,0.9-3.4,2.5-3,4.9c0.2,1-0.4,1.6-0.8,2.2c-2.2,3-7.3,4.2-10.7,2.4
	c-4.4-2.3-4.3-2.3-3.7-7.5c0.2-1.8,0.7-3.6,0.1-5.6c-0.6-1.9,1.5-2,2.7-2c2.8,0.1,5.6,0.3,8.3,0.6c1.5,0.2,1.9-0.3,2.2-1.7
	c1-3.9,1.2-6.5-4.1-9.7c-0.6-0.4-1.5-0.6-1.4-1.5c0.2-1.2,1.3-0.7,2-0.8c1.3-0.1,3.4,1.5,3-1.7c-0.1-0.6,0.6-0.4,1-0.3
	c1.6,0.5,2.8-0.6,3.5-1.5c2.1-2.7,5.5-4,6.7-7.6c0.8-2.2,3.3-2.6,5.2-2.8c1.5-0.2,2-0.5,2-1.8c0.1-2.4,1.2-2,2.5-0.9
	c1.1,1,2.1,1.2,3.8,0.8c2.4-0.7,2.7,1.8,3.2,3.5c1.1-3.5,4.7-5.5,8-4.3c2,0.7,5.1-1.9,4.7-3.9c-0.4-1.8-0.6-3.5,0.5-5.1
	c0.5-0.7,1.1-1.3,2-0.5c0.6,0.5,1.1,2.4,2.2,0.9c0.7-0.9,1.3-2.2,0.4-3.7c-1.6-2.4-0.7-4.5,2.1-4c3.1,0.5,5.5,0.1,7.8-2
	c-2-1.9-4.2-2.4-7-1.2c-2,0.9-3.8,1.4-6,0c-1.5-1-1.5-2-1.9-3.4c-1.8-6.1,2.8-9.3,5.7-13.2c1-1.4,2-2.7,0.3-3.9
	c-1.7-1.1-3.7-1.5-5.2,0.7c-0.2,0.3-0.5,0.5-0.5,0.8c0.2,4.7-3.6,6.9-6.1,9.9c-2.6,3-2.2,6.5,0.5,9.6c1.8,2-0.2,3-1,4.2
	c-0.7,1.1-2.3,1.7-2.1,3.2c0.5,3.9-2,6-4.7,8.1c-1.7,1.2-1.8-0.2-1.8-1.1c0.1-2.4-1.7-4.1-2-6.4c-0.3-2.1-1.4-4.2-2.4-7
	c-0.5,2.9-2.2,4.1-3.6,5.6c-1,1-2.1,1.3-3.3,0.4c-0.9-0.6-1.1-1.5-1.4-2.6c-0.6-2.4,1-3.3,1.9-4.7c-0.7-1.7-2.3,1.4-2.6-0.7
	c-0.3-2.3,2.5-0.6,3.1-2c-0.4-1-1.2-0.6-1.9-0.7c-0.5-0.1-1.1-0.1-1.2-0.7c-0.1-1,1-0.6,1.2-0.8c0.9-1.1,0.8-2.6,2.2-3.7
	c1.5-1.2,2.6-2.8,4.8-2.7c0.2,0,0.4,0,0.6-0.1c0.8-0.3,1.9-0.8,1.6-1.6c-0.4-1.4-1.3,0.5-2.1,0c0-0.2,0-0.7,0.1-0.8
	c3.4-2,4-5.9,5.5-9c1-2,0.7-4.4,3.7-4.8c0.2,0,0.5-1,0.4-1.4c-0.3-1.3-1.4-3,1.5-1.7c0.1,0.1,1.6-1.8,1.6-2.7c0-2.6,1.3-3.8,3.5-3.9
	c2.6-0.1,2.4-2.8,3.9-3.9c0.3-0.2,0.4-1.4,1.1-1c2.1,1.3,2.5-1,3.6-1.7c0.7-0.4-0.2-2.2,1.5-1.8c1.4,0.3-0.2,1.8,1,2.4
	c0.5-0.7,1-1.4,1.7-2.4c0,0.9,0,1.4,0,2c1.7-0.3,0.9-2.5,2.4-2.9c0.9,0.2-0.3,3.2,2.1,1.5c0.7-0.5,2.4,0.8,2.5,1.9
	c0.1,1.9-1.9,0.9-2.8,1.5c0.8,1.8,2.5,2.2,3.9,1.9c3.8-0.8,2.6,2.2,3.4,3.8c2.8-1.7,4.9-1.4,7.8,1.5c1.4,1.3,2.7,2.5,4.2,3.6
	c2,1.4,2.9,3.3,1.7,5.7c-1.2,2.3-3.2,3.3-5.7,2.4c-3-1.1-5.9-2.3-8.8-3.5c-0.4,0.8,0.2,1.2,0.6,1.6c1.8,1.8,3.5,3.4,2.9,6.5
	c-0.4,2.5,1.9,3.7,3.6,4.9c0.6,0.4,1.5,0.5,2-0.2c0.5-0.8-0.1-1.3-0.7-1.7c-0.7-0.5-1.8-1.1-0.9-2.2c0.8-1,1.4,0.2,2.1,0.5
	c2.7,1.2,3.1,0.9,3.1-2c0-1.7,3.8-4.9,5.5-4.6c2.3,0.4,3.4-0.7,2.3-2.7c-1.1-2.2,0.5-4.3-0.1-6.4c-0.2-0.7,0.5-0.7,1-0.8
	c1-0.1,1.8,0.4,2.3,1.3c0.5,0.8,0.5,1.7-0.4,2.1c-2.3,1.2-1.6,2.5-0.3,3.9c1.3,1.3,3.1,0.8,3.3-0.4c0.7-3.8,4.3-4.1,6.4-6.1
	c1.1-1,2.6-1.5,4.2-2.4c-0.1,3.3,0.7,3.9,3.3,1.9c1.4-1,3.8-0.1,5.3-1.8c0.2-0.3,0.8,0,1,0.4c0.4,0.6-0.4,2.6,1,1.8
	c0.8-0.5,2.7-1.5,2.1-3.6c-0.8-3.1-0.5-3.3,2.7-2.6c4.4,0.9,7.2,4.1,10.4,6.8c1.3-1.7,1.1-4.5-1.1-6.2c-1.1-0.9-1.2-1.2-0.9-2.6
	c0.3-1.3,1.2-2.9-0.3-4.4c-0.7-0.7-0.2-1.6,0.5-2.1c2.2-1.7,2.7-4.1,2.8-6.6c0.2-3.4,2.5-2.1,4.3-2.1c2.1,0,3,1.4,2.3,3
	c-2.1,5.4,0.7,10.8-0.4,16.2c-0.4,2.1,2.1,3.4,1.3,6c-1.3,4.1-2.9,5.8-7,5.6c1.2,2.5,4.2,3.1,6.1,1.2c2.3-2.3,4.6-4.7,3.5-8.5
	c-0.4-1.5,0.8-2.4,2.1-2.3c1.9,0.1,2.7,1.6,2.4,3.3c-0.5,2.6,0.6,3.4,3.8,3.3c-2.4-1.2-2.6-2.4-2.4-4.2c0.2-2.4-2.3-4.6-4.7-4
	c-2.8,0.7-2.9-1.3-2.7-2.7c0.5-3,1.1-5.8-0.8-8.6c-0.5-0.7,0.2-2,1.1-2.7c1.2-0.9,2.4-1.8,2.5-3.6c0,6.8,0,6.8,5.1,8.1
	c0-1.6-1.5-1.5-2.3-2.1c-0.9-0.6-1.3-1.4-1.1-2.4c0.4-1.4,1.2-0.6,1.9-0.3c0.4,0.2,0.7,0.1,0.9-0.4c1.4-2.8,1.7-2.9,4.1-0.7
	c1.4,1.3,2.4,3.5,5.1,1.7c-0.9-1.1-1.5-2.3-2.8-3.3c-2.1-1.5-1.5-4-1.4-5.9c0.1-1.6,2.1-1.5,3.6-1.6c1.5-0.2,3.1-0.3,4.6-0.8
	c1.5-0.5,4.8-0.2,2-3.4c1.7-1.6,0.6-2.1-1.4-2.5c3.5,0.4,2.7-3.2,4.8-4.2c1.6-0.8,3.1-1.9,4.9-2.6c1.4-0.6,3.2-0.3,3.9-2.6
	c0.3-1,2.8-1.1,4.5-0.2c1.8,1,4.8-1.7,6.2-2.2c4.4-1.8,2.2-7.4,6-9.2c1.1-0.5,1.8-1.8,3.2-1.2c2.2,0.9,2.3,1.9,0,4.3
	c0.9,0.2,1.8,0.5,2.7,0.7c1.2,0.2,2,0.6,1.2,2c-0.3,0.5-0.8,1.1-0.1,1.6c0.5,0.4,1.1,0.1,1.7-0.2c3.8-1.9,5.5-1.5,8,2
	c0.7,1.1,2.8,1.5,2.2,2.9c-1.1,2.8-0.3,6-3.5,8.5c-3.8,2.9-6.5,7.1-9.4,10.3c1.7-0.1,3.9-1.3,6-2.4c0.6-0.3,2.3-0.8,0.6-2.1
	c-0.6-0.4,0-1.3,0.7-1.1c1.5,0.4,2.6,2.1,4.6,1.1c0.2-0.1-0.3,2.1,0.7,3c2.3-3.1,6.9-3.1,8.9,0.1c1,1.6,6.2,3,7.9,2.1
	c1.1-0.5,0.9-1.4,0.9-2.4c0-2.3,0.9-2.8,3-1.7c1,0.5,1.9,1.4,3,1.1c1.4-0.4,2.3,0.2,2.7,1.4c0.4,1.1-0.4,2-1.3,2.5
	c-1.7,1-2,1.6-0.1,2.8c1.6,1,1.9,3.1,2.8,4.7c0.5,0.8,0.9,1.7,1.4,2.4c1.7,1.9,2.4,1.7,3.2-0.8c0.3-1.1,0.6-2.1,1-3.8
	c1.7,2.1,3.4,3.2,5.5,1.3c0.2-0.2,0.8-0.2,0.9,0c1.7,2.2,3.7,0.9,5.7,0.7c1.8-0.2,1-1.5,1-2.3c0-4,1.7-5.4,5.7-4.7
	c4.3,0.8,4.8,1.6,3.6,5.9c1.7,0.1,2.4-1.1,3-2.2c0.9-1.5,2.1-1.7,3.4-0.9c0.9,0.5,2.8,0.8,1.2,2.6c-0.1,0.1-0.2,0.5-0.1,0.5
	c1.7,1.4,3.6,2.5,5.1,4.3c0.7,0.8,2.3,0.3,3.5-0.1c2.3-0.8,4.6-1.3,6.9-0.2c2,0.9,3.3,2.2,2.7,4.6c-0.5,2,1,2.8,2.1,2.4
	c3.8-1.1,7.5,1.2,11.3,0.2c1.6-0.4,1.3,2.1,2.8,2.4c0.8,0.2,1.1,1.9,2.5,1.2c1.4-0.7,1-1.9,0.7-3c-0.7-3-0.5-3.1,2.6-2.4
	c3.4,0.7,7,0.3,10.2,2.3c4.1,2.6,7.5,6,11.4,8.9c0.7,0.5,1,1.5,1,2.5c0,1.2,0.2,2.5,1.6,3.1C623.7,266,623.7,268.5,623.7,271z"/>
<path fill="#F0EEE8" d="M-10.5,260.4c2.1,0.2,3.4,1.7,4.7,3.1c1.4,1.5,0.4,3.1-0.7,3.1c-3.4,0-2.2,2.9-3,4.4c-0.3,0.5-0.3,1-1,1.2
	C-10.5,268.3-10.5,264.3-10.5,260.4z"/>
<path fill="#F1EEE8" d="M78.8,321.9c-2.8-1.4-4.3-4.6-7.8-5.5c-2.1-0.6-0.8-2.3,1-3.2c-1.4-0.9-3.5-0.9-2.5-3.1
	c-3.4,0.1-4.4-2.2-4.9-5c0-0.2,0-0.4-0.1-0.6c-2.4-2.3-4.8-4.7-6.2-7.9c-0.7-1.6-1.6-2.9-3.7-2.6c-1.2,0.1-1.8-0.6-2.6-1.4
	c-2.5-2.6-5.5-4.3-9.2-4.3c-2,0-3.5-0.9-5.1-2c-1.5-1.1-3.2-2.6-4.4,1c-0.6,1.7-3.4,2.7-5.4,4.2c-0.2-2.9-0.4-5.5,2.9-6.6
	c-2.2-0.8-3.1-0.5-4.2,1.6c-0.7,1.4-1.3,2.8-2.7,3.6c-0.3,0.2-0.8,0.8-0.7,0.9c1.9,3.8-2.1,4.1-3.5,6c-2.8,3.7-6.5,6.3-12,7.3
	c4.3-3.4,9.9-4.9,9.9-11.4c-2.3,0.7-4.5-0.9-7-0.2c-1.1,0.3-1-0.9-1-1.5c0.1-1.9-0.2-3.1-2.5-2.3c-0.9,0.3-1.7-0.1-2-1
	c-0.5-1.2,0.8-1.5,1.3-2.2c-1.4-0.9-4.1-0.5-3.7-2.9c0.3-2,0.9-4.3,3.6-5c1.5-0.3,2.7-1.4,4.1-2.1c2.4-1.4-0.1-3.6,0.8-5.3
	c0.1-0.3-1.1-0.2-1.6,0.1c-1,0.6-1.9,1.2-3.1,0.7c-1.5-0.6-3.4,1.2-4.6-0.8c-0.8-1.2-0.8-3-3-3.2c1.7-2,3.8-2.5,5.4-3.8
	c0.4-0.3,1.1-0.5,1.4,0c2.2,3,4.2,1.2,6.8-0.4c-4-1.7-6.5-4.7-9.5-7.3c-0.7-0.7-1.4-1.3-1.1-2.3c0.2-1,1.2-1.2,1.9-1.3
	c2.2-0.3,3.2-1.4,3.7-3.5c0.4-1.7,1.5-2.9,3.2-3.8c2.6-1.4,5.5-2.3,7.6-4.6c0.4-0.5,1.3-0.4,1.3-0.1c0.2,1.9,1.8,1.3,2.7,1.6
	c6.4,2.1,12.8,3.9,19.5,4.7c3,0.4,5.8,2.2,8.6,3.6c1.2,0.6,2.1,1.7,3.5,1.9c1.1,0.2,2.5,1.1,2.1-1.4c-0.2-0.9,1.2-1.6,1.7-1.4
	c2.8,0.9,4.2-1.3,6-2.5c0.7-0.5,1.3-0.8,1.9-0.1c0.1,0.1-0.4,0.6-0.7,0.9c-0.3,1.3-1.5,1.3-2.3,1.7c1.2-0.1,2.1-1.2,3.3-1.6
	c2.6,0.5,2.9-1.6,3.7-3.2c1,0.4,1.1,1.3,1.4,2c0.4,1.1,0.6,2.5,1.8,2.7c1.4,0.3,1-1.8,2.4-2.2c0.3,2.3,0.7,4.5,3.1,1.1
	c0.5-0.8,1.9-0.6,2.6-0.1c3.2,2.3,6.4,4.2,10.6,4.3c0.9,0,3.7,1.1,0.9,3.2c-1.4,1-0.4,1.8,0.8,2.1c1.8,0.5,3.7,0.4,5.5,0
	c3.4-0.7,4.9,0.4,5.6,3.9c0.1,0.7,0.3,1.4,1.1,1.9c1-0.4,0.2-1,0.2-1.5c-0.2-2.9-1.2-6.1,2.9-7.4c-0.9-0.9-1.2-0.2-1.7-0.2
	c-1.1,0-2.1,1.4-3,0.5c-0.6-0.6,0.4-1.4,1.1-1.4c1.3,0,2.8-2.7,4,0.3c1.2,3.1,4.2,3.6,6.8,3.9c2.2,0.2,4.5,0,6.7,0.4
	c0.5,0.1,1.1,0.2,1.3-0.4c0.1-0.4-0.1-0.8-0.5-1c-0.7-0.3-1.8-0.3-1.4-1.5c0.1-0.3,1.1-0.7,1.3-0.5c0.8,0.6,2,0.8,2.1,2
	c0,0.5-0.2,1-0.2,1.5c0,0.7-0.2,1.6,0.9,1.6c1.2,0,1.1-0.7,0.8-1.5c-0.5-1.3,0.9-1.5,1.2-2.1c0.5-1.2,3.9-2,0.8-4
	c2.2-3.5-1.6-3.5-2.9-5c-1.5-1.7-0.5-8.9,1.2-10.3c0.7-0.6,1-0.2,1.6,0.1c2.2,1.5,4.4,7.3,3.6,9.9c-0.1,0.5-0.7,0.9-0.3,1.4
	c0.9,1,2.7,0.4,2.9,2.6c0.1,1.2-0.3,2.7,0.9,3.9c1.4-0.9,0.8-2.7,1.8-4c1.6,1.3,3,2.4,2,4.7c-0.3,0.8-0.4,1.7,0,2.4
	c0.4,0.8,0.7,1.9,1.8,1.9c1,0,1.2-1.1,1.3-1.9c0.6-2.9,3.4-5.4,1.8-8.8c-0.2-0.4,0-1.1,0.7-1.2c2.2-0.3,4,0.7,5.3,2.4
	c0.8,1.1,1.8,2.3,0,3.6c-1.4,1-0.6,2.4,0.1,3.2c1.9,2.1,0.5,3.5-0.8,5.1c-1.7,2.2-2.5-0.7-4-0.7c0.9,2.6,0.5,3.4-2,1.8
	c-0.4-0.3-1.8-0.5-1.3,0.8c0.8,1.8-0.2,2.8-1.4,3.6c-1.4,1-2.2-0.5-3.1-1.2c-0.2-0.2-0.5-0.2-1-0.4c-0.1,1.4,0.8,1.8,1.6,2.4
	c0.8,0.6,2.9-0.2,2.3,1.6c-0.4,1.4-1.6,2.6-3,3.6c-3,2.1-5.4,0.5-8.1-0.4c0.8,1.8,2.5,1.9,3.9,2.6c1.3,0.6,1.9,1.2,0.1,2.2
	c-3.3,1.8-6.7,9.2-6.1,12.9c0.1,0.5,0.2,1.3,0.5,1.4c2.7,0.8,3,3.1,3.6,5.3c0.3,1,0.7,1.4,1.8,1.1c2.3-0.5,4.2,0.7,5.9,2
	c2.6,2.1,5.1,4.2,8.7,4c1.7-0.1,1.7,1,1.6,2.3c-0.1,2.9,0.2,5.8,2.8,7.8c0.7,0.5,0.8,2.1,2,1.2c0.9-0.7,2.3-1.7,1.8-3
	c-1.9-4.3-0.9-7.5,2.9-10.3c1.8-1.3,1-5.9-1-7.6c-1.4-1.2-1.6-2-0.6-3.6c1.8-2.9,0.1-6-0.1-8.9c-0.1-2.6,0.6-2.9,2.7-2.4
	c1.4,0.4,2.8,0.9,4.2,0.2c0.9-0.4,1.3,0.3,1.9,0.8c1.8,1.5,2.7,3.8,5.2,4.7c1,0.4,0.4,1.7,0.6,2.5c0.2,1.6-0.5,3.4,1.5,4.7
	c2.9,1.8,5.3,1.1,6.2-2.4c0.2-0.9,0.2-1.8,1.5-2.5c1.6,4.1,4.6,7.5,4.8,12.3c0.1,2,2.2,3.5,4,4.7c0.8,0.5,1.8,0.9,3.2,1.5
	c-1.8,0.6-3.4,0.9-3.7,2.7c0.8,0.6,1.5,0,2-0.4c2.3-1.9,3.8,0.3,4.5,1.6c0.9,1.6,0.7,3.6-1.5,5c-4.6,2.9-9.4,4.2-14.7,3.4
	c-2.9-0.4-3.7,2.2-5.5,3.4c-1.7,1.1-2.9,2.8-4,5.2c1.4-0.4,1.9-1.3,2.5-2c1.5-1.7,3.3-2.9,5.5-3.3c1-0.2,2.2-0.4,2.8,0.7
	c0.6,1-0.5,1.4-1,2c-1,1.4,1,5.3,3.1,6c0.9,0.3,2,0.4,3.7,0.8c-2.5,2-5.4,2.2-7.1,4.2c-0.3,0.3-0.8,0.1-1.1-0.3
	c-0.3-0.6-0.3-1.3,0.2-1.7c0.9-0.6,1.9-1.1,2.8-1.7c-0.1-0.2-0.2-0.5-0.3-0.5c-2.9-0.7-5,1.7-7.4,2.5c-2.4,0.9-4.3,2.7-4.1,5.9
	c0.1,1.5-1.7,1.7-2.8,1.8c-1.9,0.1-3.2,0.5-3.2,2.8c0,1.7-3,2.1-1.8,4.4c-2.3-0.3-1.1-2-1.7-3.1c-0.9,1.6-2.2,2.4-0.5,4.4
	c1.6,1.9,0.5,5-1.7,6.6c-0.8,0.6-1.6,1-2.3,1.6c-3.7,3-6.7,6.3-3.2,11.4c0.1,0.2,0.1,0.4,0.1,0.6c0.4,1.7,1.5,4.4-0.1,4.7
	c-2,0.4-3.1-2.4-3.4-4.4c-0.3-1.9-0.5-4.3-2.2-4.3c-3.5,0.1-7.2-3.5-10.5,0.3c-1.7,1.9-3.4-0.1-5.2,0c-4.5,0.1-7.9,2.6-8.5,6.9
	c-0.6,4.4-1.4,8.7,1.7,12.8c1.4,1.8,2.8,2.7,4.9,2.5c2.4-0.3,5.3-0.2,6-3.5c0.6-2.7,2.8-2.3,4.6-2.5c0.9-0.1,1.7,0.5,1,1.9
	c-1.1,2.2-2.2,4.5-2.3,7.3c-1-1.5-1.5-3.6-3.9-2.2c0.7,0.5,2.3-0.3,2.3,0.8c0.3,4.4,3.5,2.8,5.7,2.7c4-0.2,5,0.6,4.6,4.5
	c-0.2,1.6-0.8,3.3,0.1,4.9c1.5,2.7,3.6,3.8,6.7,2.7l0,0c-0.7,2.6-1.7,3-4.3,1.5c-1.8-1-3.6-2.2-5.3-3.3c-1.6-1.1-2.2-3.7-3.9-5.2
	c-0.3-0.3,0-1.1-0.9-1c-4,0.4-7.1-1.4-9.8-4.1c-0.7-0.7-1.6-1.4-2.5-0.9c-3.3,1.8-6-0.3-8.8-1.2c-2.1-0.7-4.2-1.8-6.1-2.9
	c-2-1.2-3.9-2.2-3.7-5.6c0.2-3-3.2-4.8-5-7.1c-2.7-3.6-6.6-6.4-8.3-10.8c-0.2-0.5-0.4-1-0.7-1.4c-0.5-0.7-1.3-1.1-2.2-0.8
	c-1.2,0.5-0.7,1.5-0.3,2.1c1.5,2.4,3,4.9,4.7,7.2c0.8,1.1,1.3,2.3,1.9,3.5c0.3,0.5,0.6,1.3-0.2,1.6c-0.7,0.3-1.3-0.4-1.4-0.9
	c-0.4-2.1-1.5-3.6-3.6-4.2c-0.3-0.1-0.7-0.4-0.6-0.6c0.5-4.7-4.6-6.9-5.1-11.2c-0.2-1.4-1.7-2-2.9-2.5c-2.8-1.2-4.1-3.6-5.6-6.1
	c-2.1-3.7-4-7.2-4.1-11.7c0-1.6,0.2-3,0.3-4.6c0.4-3.6,1.7-7.3-1.1-10.7c1.5-0.1,2.4-0.1,2.5,1.2c0,0.8,0.2,1.6,1.2,1.3
	c0.7-0.2,0.6-1,0.7-1.6c0-1.1-0.1-2.1-0.6-3c0.8-0.8,1.8-0.4,2.6-0.4c14.7,0,29.4,0,44,0c-15.4,0-30.9,0-46.3,0
	C79.1,322.1,79,322,78.8,321.9z"/>
<path fill="#F1EEE8" d="M191.8,157.1c-0.2-0.6-0.3-1.2-0.6-1.8c-1.5-3.7-1.5-3.7,2.7-4.8c0.3-0.1,0.6-0.2,0.9-0.2
	c1.3,0.1,2.2-2.1,3.2-1.1c1.2,1.1,1.2,3,1.1,4.7c-0.1,1-0.2,2-0.3,3.3c2.8-2.2,1.7-4.8,0.7-7.9c3.6,2.7,2.3,7.2,5.9,9
	c-1-2.3,1.1-5-0.9-7.5c-0.6-0.8-1-2.9,0.5-3.6c1.6-0.8,2.1,0.9,3,1.9c2.6,2.7,4.7,5.8,6.7,9c1-1,0.6-1.7,0.5-2.3
	c-0.4-4.4,0.3-5.1,4.5-4.1c-3-1.9-3.9-5.2-6-7.8c5.4-0.9,5.4-0.9,7.3,4.5c0-1.8,0-2.9,0-4.3c0.8,0.9,1.4,1.6,2,2.4
	c0.6,0.7,0.4,1.8,1.3,2.4c0.6-4.2-1.2-6.3-6.3-6.8c-1.8-0.2-2.5-0.8-3.2-2.1c-0.8-1.5-0.1-1.8,1.1-1.9c0.4,0,1.1,0.2,1.2,0.1
	c1.9-4.7,2.6-0.4,3.6,0.5c0.9,0.8,1.6,2,2.9,2.1c1.3,0.1,1.4,1.7,2.8,1.9c-0.2-1.3-2-3.1,1.1-3.2c0.3,0,0.9-2.1-0.6-3
	c-1.5-0.9-2-2.3-1-3.8c1.3-1.9,2.2,0.1,3.7,0.6c-0.8-2.6,0.5-2.7,2.5-2.8c2.4-0.1,4.7-0.8,7.2-0.6c1.3,0.1,2.4,0,3.4,0.9
	c0.8,0.6,1.6,0.9,2.7,0.4c1.7-0.7,2.9,0.7,4,1.7c0.5,0.5,0.5,1.2,0,1.7c-1.1,1-2.4,2-3.8,1.7c-2.5-0.6-4.5,0.6-6.7,1
	c-2.4,0.4-3.6,2.3-5.6,2.7c-0.6,0.1-1.3,0.2-1.5,1.3c2.9-0.4,5.5-1.4,7.8-2.9c1.1-0.7,2.1-1.4,3.4-1.2c2.5,0.4,4.9,0.8,7.4-0.7
	c1.7-1,1.7,1.2,1.8,2.3c0,1.3-1,2.2-1.5,3.5c2-1.9,4-2,6.1-0.4c1.3,0.9,3.2,1.7,2.7,3.3c-0.5,1.6-1.7,3-3.5,3.9
	c-5,2.6-10.1,1.2-15.2,1.3c2.3,3.6-5.3,3-2.9,7c3-3.1,6.5-4.8,10.8-4.6c1.1,0.1,2.4-0.2,2.8,1.3c0.3,1.3-0.5,2.1-1.4,2.9
	c-0.5,0.4-1,0.7-1.5,1.1c-0.7,0.5-2.2,0.7-1.5,1.8c0.7,1,1.7-0.1,2.3-0.6c2-1.4,4.8-2.1,4.8-5.4c0-1.1,1.1-1,2-1
	c1.3,0,1.4,0.8,1.5,1.9c0.5,3.7-1.2,6.8-2.9,9.9c-0.7,1.2-1.1,2.3-0.9,3.8c2.1-3.3,4.3-6.5,6.5-10.1c0.4,2.3,2.4,1.4,3.6,2
	c1,0.5,1.6-1.4,1.8-2.1c0.6-2.9,1.7-2.9,4.3-1.8c4.2,1.8,6.2,3.8,1.8,7.9c-1.1,1-2,2-3,3.2c-1.8,2.2-4.8,1.3-7.3,1.6
	c-0.3,0-0.6,0-1.3,0.1c1.4,1.1,2.5,1.9,4,1.5c1.3-0.4,2.2,0,2.2,1.3c0,1.1-0.7,1.9-2,2c-0.3,0-0.6,0-0.9,0c-4.2-0.2-4.4,0-4.8,4.6
	c1.3-0.3,1.1-1.9,2.1-2.5c0.9-0.6,1.9-1,2.9-0.6c0.5,0.2,0.5,0.7,0.3,1c-0.5,0.8-0.4,2.2-1.9,2.1c-0.7,0-1.1,0-1.5,0.7
	c-1.2,2.2-4.3,15.5-4.3,18.7c1.8,0.2,0.6-2,1.7-2.3c0.8,0.4,1.1,0.7,0.7,1.7c-0.7,1.9,0.8,3.4,2.1,3.4c2.6-0.1,1.5,1.7,1.4,2.4
	c-0.2,1.7-1.5,0.7-2,0.3c-2.1-1.3-3,2.1-5.1,1.1c1.5,1.6,0.2,5.4,4.3,4.6c-0.7,1.3-1.9,0.4-2.8,1.3c3.5,0.2,4.1,2.3,3.5,5.4
	c-1.2-0.7-2.1-1.2-2.7-2.2c-0.4-0.7-1.1-1.6-1.9-0.6c-1,1.2,0.5,1.2,1.1,1.6c0.4,0.3,0.9,0.5,1.2,0.6c-0.6,1.5-1.7,0.9-2.8,1.4
	c1.7,0.9,2.8,1.9,3.8,3c0.5,0.6,2.5-0.1,1.7,1.8c-1.5-0.7-2.4,3.1-4.2,0.6c-0.1-0.1-0.3-0.2-0.4-0.3c-0.5,2.2-0.5,2.2,1.9,2.9
	c0.8,0.2,0.8,0.8,0.8,1.5c0,1.4-1.2,1.1-2,1.6c-0.9,0.5-1.6,0.9-2.5,0.2c-0.2-0.2-0.4-0.3-0.3-0.8c0.4-1.8,0.2-2.2-1.4-2
	c-1.1,0.2-2,0.2-3.3-1.5c0.6,2.7,1.7,5.2-2.1,3.8c-0.8-0.3-0.5,1.5-1,2.3c1.2,0.6,2.3-1,3.3,0.2c0,1.6-1.9,0.1-2.3,1.5
	c1.7,0.5,5.4-0.1,2,3.9c1.7-1.5,2.8-1.5,3.9-0.1c1.6,2,3,4.1,3.1,6.8c0,0.8,0.2,1.8-0.9,2c-1.1,0.3-2.5,0.1-2.7-0.9
	c-0.8-4.3-4.6-5-7.5-6.9c0.1,2.2,0.1,2.2,4.2,3.6c-1.2,2.3-5,1.4-5.2,4.7c1.3,1.7,2.9,2.3,5.4,0.8c1.5-0.9,3.5,0.4,4.4,1.4
	c0.9,1.1-1,1.9-1.8,2.7c-2.9,3.1-6.6,5.4-10.6,5.9c-3.8,0.5-5.2,2.7-6.2,5.6c-0.8,2.3-3,3-4.4,4.6c-0.3,0.4-1.5,0.5-1.7,0
	c-0.7-2.6-1.2-1.2-1.7,0.1c-0.6,1.8-2.6,2-3.7,3.4c-1,1.1-1.5,1.7-1.3,3.2c0.3,1.9,0.1,3.8-1.6,5.1c-2.5,2-0.5,4.8-1.4,7.1
	c-0.8,2.4-2.4,2.2-4.1,2.5c-1.8,0.3,0.4-2.8-1.7-2.1c-1.2,0.4-2.2,1.4-3.4,0.4c-2-1.7-3.3-3.9-4.1-6.4c-0.4-1.2-0.1-2.4-1.5-3.4
	c-1.2-0.8,0.5-1.5,1.1-2c1.4-1.2,1.8-2.2-0.5-2.6c-2-0.4-3.8-2.7-3.4-3.3c1.3-1.8-0.2-5.6,4.1-5c-1.2-1.3-1.9-0.9-2.6-0.4
	c-1,0.8-2.1,1-2.4-0.4c-0.2-1.1,0.5-2.4,1.5-3.1c0.5-0.3,1.4,0.2,1.9-0.6c-0.6-1.4-2.2-0.3-2.9-1.5c0.9-0.6,1.9,0.7,2.7-0.3
	c0.1-1.4-1.6-0.5-1.9-1.4c0.1-0.1,0.2-0.4,0.3-0.5c2.4-0.9,4.2-4.9,3.1-7.1c-0.1-0.3-0.7-0.7-0.9-0.6c-1.8,0.2-2.8-1-4.1-1.8
	c-0.8-0.5-2.1-0.8-1.5-1.8c0.5-0.8,1.7-0.1,2.6,0.1c1.1,0.2,1.6,1.7,3.1,1.4c-0.1-2.8-2.3-4.7-3.3-7c-0.5-1.3-0.3-3.9-3.1-3.5
	c-0.1,0-0.3-0.5-0.3-0.8c0.3-4.8-2.1-9-3.4-13.3c-1.3-4.1-3.2-8.8-7.7-11.3c-1.1-0.6-2.2-0.6-3.3-0.7c-2.3-0.2-4.4,1.8-6.9,0.7
	c-1-0.4-0.3,2.1-1.8,1.2c-1-0.6-2.2-1.1-2.6-2.1c-0.4-1.2,1.1-1.5,1.8-2.4c-1.4-0.2-2.5-0.8-3.7-1.5c-0.7-0.4-1.7-0.8-1.3-1.8
	c0.4-1,1.4-1.3,2.3-1.1c1.8,0.5,3.5,0.9,5.7,0.9c-1-1.6-2.5-0.8-3.6-1.5c0.8-1.1,2-0.6,3-0.6c1.1,0,1.5-0.7,1.2-1.7
	c-0.3-0.8-0.9-1.1-1.7-0.5c-1.2,0.9-3.3,1.5-3.9,0.7c-1.6-2-4.7-2.3-5.6-4.9c-0.5-1.5,0.1-3.1,1.7-3.9c2-1,4.1-1.9,5.5-3.9
	c0.3-0.4,1.1-0.6,1.7-0.8c4-1.3,5.7-3.5,5.7-7.7c0-0.9-0.1-1.8,0.6-2.6c-0.5,0-0.7-0.1-0.9-0.1c-1.6,0.4-3.3,2-4.7-0.1
	c-1.4-2,0.5-3.4,1.6-4.5c1.5-1.5,2-3.5,3.3-5.1c1.1,0.5,0.7,1.9,1.9,2.2c0.8-1.2-1.1-2.4,0-3.7c1.5,0.1,1.9,1.3,2.6,2.3
	c0.3,0.5,0.7,0.8,1.3,0.5c0.5-0.3,0.7-0.9,0.3-1.3c-2-2.2-0.2-5-1.3-7.4c-0.5-1.1,0.4-2,1.5-2.3c1.1-0.4,2.1,0,2.4,1.3
	c0.2,1,0.5,1.8,1.4,2.2c0.3-0.2,0.6-0.2,0.8,0.1c0.2,0.3,0.4,0.7,0.6,1c-0.2-0.3-0.3-0.5-0.4-0.8C192.5,157.8,192,157.6,191.8,157.1
	z"/>
<path fill="#F1EEE8" d="M371.6,401.4c1.2,1.7,2.5,2,4.6,1.4c2.9-0.9,6.1-0.7,9.5-2.1c-0.7,5.8-3.4,10.2-6.8,14.2
	c-3.2,3.8-7.6,6.2-10.8,10c-3.8,4.5-5,9.5-2.1,14.7c1.6,2.9,0.8,6,1.1,9.1c0.1,1.3-1.4,2.6-2.9,3.3c-1.2,0.5-2.3,1.3-3.4,2.1
	c-2.9,2.1-4.5,4.4-2.8,8.2c0.9,2,0.2,4.3-2.6,5c-1.1,0.3-2.2,0.9-2.1,2.3c0.5,4.7-3.2,7.4-5.5,10.6c-2.7,3.8-6.5,5.9-11.4,5.5
	c-1.4-0.1-2.8,0.4-4.2,0.8c-2.1,0.5-4.7-0.9-4.4-3c0.6-3.5-1.3-6.2-2.9-8.5c-2.1-3.1-3.1-6.3-3.4-9.8c-0.3-3.3-1.7-5.9-3.3-8.5
	c-2.2-3.8-2-7.8,0.2-10.8c2.7-3.9,0.9-7.3,0.4-10.8c-0.5-3.4-2.3-6.1-5.1-8.3c-1.5-1.2-2.5-2.8-1.3-5.1c0.6-1.1,0.6-2.6,0.7-3.9
	c0.3-2.5-1.3-4.3-3.8-4c-2,0.2-3.3,0.4-4.4-2c-0.8-1.9-5.8-2.1-8.2-0.7c-2.3,1.3-4.5,2.4-7.3,1.5c-1.2-0.4-2.7-0.1-4,0.2
	c-1.7,0.5-3.4,1.7-5,0.4c-2.6-2-6-3.2-7.5-6.2c-1.1-2-2.3-3.7-3.9-5.1c-3-2.4-3.8-5.4-2.4-8.9c1-2.4,1-5,0.2-7.2
	c-0.9-2.7,0.3-2.7,2.2-2.5c0.4,0,0.8,0.1,1.1-0.5c-1.2-0.8-3.4,0.8-3.7-0.7c-0.2-1.2,1-2.9,2-4c1.3-1.3,0.9-3.2,2.2-4.4
	c1.6-1.5,2.6-3.5,4.9-4.4c1.8-0.7,3.3-2.2,3-4.9c-0.2-1.8,0.8-3.6,2.1-4.6c2-1.3,3.7-2.4,4.5-4.8c0.3-1,1.1-0.3,1.8-0.2
	c2.6,0.7,5,1.4,7.6-0.6c4-3.1,8.9-2.5,13.6-2.6c3-0.1,1.4,2.6,2.2,4.1c0.1-0.5,0.1-0.9,0.2-1.2c0.1-1.3-0.3-2.8,1.4-3.4
	c0.9-0.3,2.1-0.1,2.2,0.6c0.3,1.4,1.1,2.8,0.3,4.4c-1,1.9,0.6,4,2.8,4.1c2.3,0.1,4.3,0.4,6,2.5c1.4,1.8,4.1,1.7,6.1,2.6
	c1.1,0.5,1.6-0.7,1.9-1.9c0.6-3.1,2.6-4.1,5.3-2.5c3.1,2,6.8,2.1,10.1,3.2c1.1,0.4,1.7-0.6,2.5-0.8c2.1-0.6,3.8-0.5,3.7,2.3
	c-0.1,1.8,0.8,3.2,1.8,4.5c0.8,0.4,1.7,1,2,1.9c1.9,4.7,4.7,8.8,6.3,13.7c1,3.1,2.4,6.6,5.5,8.7c1.5,1.1,2.4,2.5,3.4,3.9
	C372.2,399.6,372.3,400.4,371.6,401.4z"/>
<path fill="#F1EEE8" d="M154.5,405.6c1.2-1.1,2.5-0.6,3.3,0.3c1.7,1.9,2.9,0.8,3.4-0.6c0.9-2.4,2.9-2.8,4.9-3.7c2-0.9,2.5,0,2.3,1.7
	c-0.1,0.8-0.5,2,0.6,2c1.4,0.2,0.6-1,0.7-1.7c0.1-1.9,2.5-2.9,4.2-1.7c2.5,1.7,5.3,2,8.1,1.5c2.3-0.5,4,0.8,5.6,2
	c0.7,0.6,1.6,1.3,2.1,1.9c2.9,3.5,6.8,4.1,11,4.7c4.1,0.6,4.8,4.8,6.3,7.7c1,2,2.2,3,4.3,3.4c2.1,0.4,4.3,0.7,5.3,3.1
	c0.4,1,0.9,0.2,1.5,0.3c3.6,0.3,7.5-0.4,10.3,2.9c0.6,0.7,1.5,1.1,2.3,1.5c3.3,1.4,4.2,4.3,2.1,7.3c-1.4,1.9-2.9,3.8-4.5,5.5
	c-1.5,1.7-1.8,3.2-1.8,5.3c0,4.7-1.6,8.9-4.1,12.7c-0.5,0.8-1.2,1.9-2.4,1.7c-2.8-0.5-4.8,1.5-7.1,2.5c-2.1,0.9-3.4,2.6-3.2,5.4
	c0.2,3.9-3.2,6.2-4.8,9.3c-2.7,5-8.2,7.7-10.6,13c-1.1,2.5-3.7,2.8-6.1,2.8c-1.8,0-2.6,0.6-2.6,2.4c0,1.4-0.2,2.7-2.2,2.6
	c-0.9,0-2.2-1.4-2.6,0.7c-0.4,2,0.9,2.4,2.6,2.7c-1.4,0.4-2.4,0.6-2.7,2.1c-0.4,2.1-1.1,3.9-3.3,5.2c-1.8,1-1.3,3.1,0.6,3.9
	c2.3,1,1.4,2.2,0.5,3.3c-1.1,1.4-2,2.8-2.9,4.2c-1.1,1.8-2.7,3-2,5.4c0.1,0.2-1.3,3-3.4,2.6c-1.7-0.3-2.5-1.3-1.8-3.1
	c0.2-0.4,0-1,0-1.5c-0.9,0.6-1.5,2-2.4,1.6c-0.8-0.3-0.7-1.6-1-2.4c-0.6-2-0.3-4.1,0-6.1c0.3-1.9,0.5-3.4-1.2-4.7
	c-0.9-0.7-0.4-1.8,0.5-1.7c3.2,0.3,1.4-3.1,3.1-3.9c-1.1-1.6,0-3.2,0.1-4.8c0-0.6,0.2-1.6-0.2-1.7c-2.9-1.1-0.9-3-1.1-4.7
	c-0.7-5.8,3.5-10.4,3.4-15.7c0-7.6,2.3-14.7,2.6-22.2c0.1-3.2-0.1-6.8-3.4-8c-6.3-2.3-8.2-7.9-10.9-13c-1.3-2.3-2.1-4.9-4.3-6.7
	c-1.4-1.1-0.8-2,0.8-3.2c0.4-0.3,1-2.3,0.1-3.1c-3.3-2.9-0.1-4.8,1.3-6.3c4.2-4.6,5-8.1,1.4-13.7
	C156.2,405.7,155.4,405.6,154.5,405.6L154.5,405.6z"/>
<path fill="#F1EEE8" d="M537.9,487.8c0.3-1.2,0.5-2.3,0.8-3.4c-0.4,0-0.7-0.1-0.7,0c-2,2.4-3.4,2.5-5.1-0.5
	c-1.7-2.9-6.4-4.1-10.2-2.8c-3.2,1-7,0.8-9.4,4.1c-0.3,0.4-1.4,0.5-2,0.3c-2.4-0.7-4.5,0.3-6.4,1.6c-2,1.3-3.7,0.9-5.4-0.4
	c-0.4-0.3-1-0.6-0.6-1.2c2.2-3.8-0.1-7.3-1.2-10.6c-1-2.9-0.7-6-1.6-8.9c-0.7-2.1,2.9-5.9,5.7-6.7c1.9-0.5,3.8-0.9,5.7-1.4
	c0.7-0.2,1.7-0.4,1.9-0.9c1.3-3,4.2-4.6,6.1-7.1s3.3-2.9,6.2-1.6c1,0.5,1.9,0.9,2.6-0.8c2-4.4,6.6-5.7,10.8-3.7
	c1.6,0.8,0.7,1.8,0.2,2.5c-1.3,2-0.3,3,1.3,4c1.5,0.9,3,1.7,4.5,2.6c2,1.3,3,0.5,3.7-1.4c1-2.7,0.4-5.6,1.2-8.2
	c0.2-0.6,0.4-1.1,0.9-1.7c1,4.9,6,7.8,6.3,13.1c0.1,1.4,1.6,1.8,2.4,2.6c4.6,4.9,9.9,9.6,10.5,16.9c0.2,2.8-0.3,6-2,8.3
	c-2.1,2.8-3.2,5.9-4.2,9.2c-0.4,1.3-0.6,2.3-2.3,2.3c-0.9,0-1.7,0.6-2.5,1.1c-1.1,0.7-2,1.5-3.2,0.1c-0.3-0.4-1-0.7-1.4-0.3
	c-1.8,2.1-3.6,0.4-5.3,0.1c-1.6-0.3-2.9-1.1-3-3c-0.1-2-2-3-2.8-4.7C539,485.8,538.8,487.8,537.9,487.8z"/>
<path fill="#F1EEE8" d="M143.3,172.2c0.3,0,0.5,0,0.8,0c4.2-0.7,5.6,2.4,7.1,5.1c-0.3-1.3-1.5-2.2-2.1-3.4c-0.9-1.6-0.5-2.5,1.2-2.9
	l0,0c0.3-0.5,0.8-0.8,1.4-1.1c3-1.6,3-1.6,4.9-6.3c-1.2,0.9-0.5,2.6-1.5,3.8c-2,2.7-4.7,2.6-7.6,2.3c-1.5,1-3,0.9-4.6,0
	c-0.4-0.2-0.7-0.6-0.6-0.9c0.2-1.3-0.6-0.2-0.9-0.4c-0.7,0-1.2-0.2-1.7-0.7c-0.6-0.7-1.8-1.1-1.4-2.1c0.3-0.9,1.4-0.7,2.2-0.7
	c2.5,0.1,3.6-1.7,4.8-3.4c-2,1.3-4.2,2.3-6.6,2.5c-0.8,0.1-1.7,0.4-2.2-0.5c-0.6-0.8,0.2-1.3,0.6-1.9c0.7-1,1.4-2,2.1-3.2
	c-1.4-0.3-1.8,1.4-2.9,1.3c0.3-1.5,0-1.8-1.7-1.9c-1-0.1-1.1-0.9-0.7-1.6c0.6-0.9,1.4-2,2.6-1.9c0.9,0,1.4-0.2,1.8-0.9
	c0.8-1.5,1.7-2.8,2.9-0.3c1.6-0.9,2.6,0.8,4,0.8c0.2,0,0.5-0.3,0.6-0.6c0.2-0.6-0.1-1.1-0.6-1.3c-0.9-0.5-1.8-0.9-3-1.6
	c1.3-0.8,2.9-1.2,2.4-3c-0.2-0.8,0.5-0.8,1-0.5c0.8,0.5,2,1,2.2,1.6c0.8,3.5,3.2,4.1,6.5,4c-2.2-2.5-6-4.2-3.4-8.5
	c1.3-0.1,1.3,1.8,2.5,2.4c0.4-1.9-1.1-2.9-1.4-4.5c1.9-0.6,2.1,2.7,4.1,1.8c0-0.1,0.1-0.3,0-0.3c-0.7-1-2-1.5-1.8-3
	c0-0.2,0.6-0.5,0.7-0.4c1.4,1,3.6-0.2,4.5,1.9c0.5,1.2,0.8,2.5,2.9,3.2c-1.2-2.1-2-3.7-2.9-5.2c-0.4-0.7-0.7-1.4,0-2
	c1.3-1,2.9-1,4.4-1c0.8,0,0.7,0.8,0.6,1.5c-0.1,2.3,1.6,3.9,2.8,5.9c0.9-1.6-0.6-2.2-1-3.2c-0.4-0.9-1.4-2-0.3-2.7
	c0.7-0.5,2.3-1.6,2.8,0.6c0.2,0.6,0.6,0.8,0.9,0c0.9-2.1,2.1-1.4,3.3-0.2c1.3,1.2,3.1,0.9,4.7,1.5c0.1,2-2.3,2.1-2.9,3.9
	c1.8-0.1,2.7-1.3,3.9-2c2-1.5,3.4-1.1,4.4,1.3c0.6,1.4,1.3,2.5,2.9,2.9c1.4,0.3,1.5,1.6,1.3,2.8c-0.8,3.5-7,8.1-10.5,8.2
	c-1.2,0-2-1-3.2-0.7c0.4,2.2,1.9,2.1,3.9,1.7c-1.5,2.2-3.6,2.7-5.9,4.7c4.1-0.9,6.3-3.6,10.2-4.4c-2.9,4.8-7.1,7.9-9.2,12.8
	c-1.3-1.1-1.8-3.2-4.1-2.6c0.9,1.2,2.1,1.8,2.6,3.2c0.9,2.5-2.3,0.7-2,2.3c2.5-0.2,0.5,1.5,0.6,2.2c0.1,1.2-0.9,2.1-2,1.6
	c-1.2-0.5-2.1-1.5-3.6-1.5c0,0.3,0,0.5,0.1,0.6c0.7,0.8,3,1.1,1.7,2.5c-0.8,1-2.6,2-4.3,0.8c-0.6-0.5-1.5-1.4-2.1-0.6
	c-0.8,1-1.2,2.3-1.5,3.6c0,0.2,0.6,1.6,2,1.8c2.2,0.3,4.9,0.9,2.2,4.3c-0.5,0.6,0.7,2.3-1.4,2.1c-0.1,0-0.2,0.3-0.2,0.5
	c-0.2,2.1-0.2,2.1-3,1.9c-0.2,1.7,1.4,3.9-1.1,5c-2.8,1.2-4-0.9-5.5-2.5c0.2,1.9-0.1,4.1,2.9,3.7c1.1-0.1,2.4-0.1,1.9,1.8
	c-0.1,0.2,0.3,0.7,0.4,0.7c1,0,2.8-0.3,1.8,1.4c-0.9,1.5-2.2,3.2-4.4,3.5c-0.6,0.1-0.5-0.5-0.7-0.8c-0.6-1.2-1.2-2.2-2.9-1.1
	c-1,0.6-0.6-1.4-1.5-1.4c0.7,2.9-3.6-0.5-3,2.4c0.1,0.7-0.7,0.4-0.9,0.2c-0.9-1.4-1.8-1.9-3.3-0.6c-0.7,0.6-1.3,0.1-1.4-0.9
	c-0.4-3.5-1.2-0.1-1.8,0c-0.4-1.8,0-3.4,1.9-4.1c2.4-0.8,1.8-2.2,0.9-3.6c-1.5-2.1-0.4-2.7,1.6-2.8c1.1,0.1,1.8,0.7,2.4,1.6
	c1.4,2.2,2.1,2.1,4.1-0.1c-0.7,1.3-1.6,2.1-3,1.4c-1.2-0.6-1.4-1.7-0.7-2.9c0.2-0.4,0.4-0.7,0.2-1.1l0,0c-0.7-1.2-2.1-0.8-3.1-1.2
	c-0.2,0-0.4,0-0.6,0c-1.3-1.4-1.4-2.9-0.2-5.1c1.1-2.1,2.8-2.5,4.9-2.3c1,0.1,1.7,0.8,2.9,1.2c-1.8-1.1-2.8-2.3-3.5-3.9
	c-0.6-1.5-1.4-2.7-2.5-3.8C141.2,176.8,141.3,174.7,143.3,172.2z"/>
<path fill="#F1EEE8" d="M145.3,237.3c-0.4-0.7-1.2-1.4-0.8-2.2c0.6-1.3,1.6,0.9,2.3-0.1c-0.1-1.2-1.1-1.6-1.8-2.3
	c-0.5-0.5-1-1.2-0.8-1.9c0.5-1.2,1.2-0.1,1.7,0c0.9,0.3,1.1-0.3,1.4-0.9c0.4-0.7,0-1.1-0.7-1.4c-1.6-0.6-1-1.2,0.1-1.8
	c1.5-0.8,3.3-2.9,4.5-1.1c1.1,1.7,3.6,3.9,1.3,6.5c-0.7,0.8-0.5,1.3,0,2.1c0.9,1.5,1-0.1,1.4-0.4c1.3-0.9,1.6-0.1,1.8,1
	c0.1,1,0.9,1.5,1.7,1.6c1.4,0.2-0.2-1.8,1.5-2c1-0.1-0.5-0.8-0.9-1.2c-0.3-0.4-0.9-0.6-0.5-1.2c0.2-0.3,0.6-0.6,1-0.6
	c1.5-0.3,2.7,0.6,3.6,1.4c1.2,1.2-0.6,1.3-1.1,1.9c-0.2,0.2-0.4,0.7-0.4,0.8c1.2,1.3,2,2.9,3.2,4.1c1,1,2.5,0.5,3.3-1.1
	c0.3-0.8,1-0.7,1.5-0.2c0.6,0.5,1,1.1,0.4,1.9c-0.5,0.7-3,1.6,0.3,1.9c0.4,0-0.3,0.6-0.4,0.9c-0.6,1.1-0.3,1.9,0.7,2.6
	c0.9-0.4,0.5-1.9,1.7-2c0.9-0.1,1.8-1.8,2.6-0.5c0.9,1.3-0.8,1.4-1.4,1.8c-1.4,0.8-0.4,2-0.6,3c-0.2,0.8,0.9,1.4,2,1.2
	c1.1-0.3,2.2,0.1,3.2,0.7c-0.5,1.2-1.4,0-1.8,0.3c-0.7,0.6-1.6,1.5-1.8,2.3c-0.2,0.7,1.2,0.6,1.7,1.1c2.1,2.3,6,2.5,7.2,6
	c0.1,0.4,1,0.5,1.2,0.9c0.6,1.2,3.4,0.2,2.8,2.1c-0.7,2.1-2.3,4.1-3.6,6c-0.3,0.4-1,0-1.4-0.3c-0.6-0.7-1.4-1.4-0.8-2.4
	c0.3-0.5,0.7-1,1-1.7c-2.6,1.9-5-2.6-7.6,0.2c2.2,3,4.7,6,6.5,9.4c0.4,0.7,0.6,3-0.1,4.6c-2-1.3-4-2.4-6.6-4c1.2,3,4.3,4,4.7,7.3
	c-3.8-1.9-7.7-2.3-9.6-6.5c-1.4-3.1-4.2-3.9-7.9-3.1c-1,0.2-2,0.5-2.9-0.4c-0.6-0.6-0.6-1.4-0.2-2c0.7-0.9,1.3-1.6,2.7-1.5
	c2,0.1,5.5,1.2,4-3.4c-0.2-0.7,1.1-1.9,1.7-2.8c2.1-3.2-0.1-9.2-3.8-10c-0.7-0.1-1.5,0.3-3.1,0.7c2.3-1.7,2.5-2.8,0.6-4.2
	c-1.6-1.2-2-3.6-4.4-4.5c1.2,2.8,0.1,3.5-2,2.2c-2.9-1.8-5.6,0.8-8.5-0.2c-2.1-0.7-3.9-1.9-6-2.3c-0.8-0.2-1.4-1.2-1.1-2
	c0.5-1.7,2.1,0.6,2.9-0.7c0.1-0.6-0.4-1-0.9-1c-4.2-0.2-3.7-3.3-3.2-5.8c0.5-2.6,0.9-5.3,2.6-7.5c0.8-1,1.7-1.8,3-2
	c0.8-0.1,1.8-0.4,2.3,0.4s-0.5,1.2-0.8,1.8c-2.3,3.9-2.1,7.9,0.6,11.4c0.8,0.4,1,0.9,0.4,1.6C145.8,239,145.1,238.1,145.3,237.3z"/>
<path fill="#F1EEE8" d="M92,238.2c-0.6-0.9-1.4-0.6-2-0.2c-1.8,1.4-3.2-0.1-4.3-0.9c-1.3-1,0.7-1.9,0.7-2.8c-0.2-3,1.8-4.1,3.8-5.3
	c1-0.6,2-1.9,3.3-1.1c1.4,0.8,0.1,2.3,0.5,3.8c1.9-2.4,3.5-2.7,4.7,0.4c0.5,1.2,1.6,0.4,2,0c1.7-2,2.2-0.8,2.8,0.8
	c0.5,1.3,0,4,1.6,3.7c1.6-0.4,0-2.6-0.1-4c0-0.5-0.2-1.1-0.1-1.5c0.2-1.1-1.5-2.6,0.5-3.1c1.5-0.3,2.9,0.8,3.4,2.2
	c0.9,2.7,1.9,5.5,2.1,8.3c0.2,2.3,0.6,3.9,2.9,4.8c0.9,0.4,1.6,1.3,2.4,1.9c0.6,0.5,1.2,1,0.9,1.8c-0.4,0.8-1.1,0.1-1.6,0.2
	c-1.4,0.2-2.1,0.8-0.9,2c0.6,0.6,0.9,1.1,0.4,1.8c-0.6,0.8-1.6,1.6-2.4,1c-3.9-2.9-7.4-1.4-11,0.7c-1.2,0.7-2.8,0.6-4.2,0.7
	c-0.7,0.1-1.8,0.1-1.9-0.6c-0.4-2.7-2.2-3.1-4.5-3.4c-1.3-0.1-2.5-1.5-2.4-2.9c0.1-1.5,1.9-1.5,3-1.6c2.1-0.2,4.2-0.1,6.4-0.4
	c-1.4-1.6-2.8-2.4-5.1-2c-1.9,0.4-4.9,1.4-5.5-0.9C86.8,238.9,90.7,239.9,92,238.2z"/>
<path fill="#F1EEE8" d="M138.9,192.1c-1.4-0.4-0.9-2.2-2.1-2.8c-1.1,3.4-2.6,4.2-3.9,2.1c-1.2-1.9-2.4-3.8-3.3-5.9
	c-0.4-1,1-1.9,2.2-2c1.1-0.1,2.2-0.1,4.1-0.2c-1.8-2.1-3.4-2.4-5.3-1.9c-2.9,0.9-3.4,0.5-2.7-2.1c0.2-0.6-0.1-0.6-0.5-0.7
	c-2.4-0.4-2-2.4-2.4-4c1.2-0.5,2.1,0.7,3.3-0.4c-1.3-1-3-1.8-1.9-4.1c0.7-1.6,1.8-0.3,2.6-0.8c-0.3-1-0.7-1.9-1.2-2.7
	c-0.6-1-0.8-1.9,0.8-2.2c2.3-0.5,2.8-1.6,0.1-3.4c2.7-0.7,3.9,0.5,4.6,2.3c0.8,2.1,1.3,4.3,2.7,6.1c0.6-0.3,1.6-0.4,1.7,0
	c0.5,2,2.4,0.5,3.2,1.4l0,0c0.2,2.1,1.5,3.9,1.3,6.1c-0.1,1.1,0.9,1.2,1.5,1.7c2.7,2,2.8,4.3,0.3,6.3c-1.1,0.8-2.2,1.7-2.8,2.7
	c-0.3,0.6-1.7-1.5-0.8,0.4C141.1,189.9,138.9,190.7,138.9,192.1z"/>
<path fill="#F0EEE8" d="M397,242.8c-2.1,0-3.3,0.2-4.5-0.1c-0.8-0.1-2-0.2-2-1.6c0-1.8-1.1-2.5-2.5-3.1c-1.8-0.7-1.9-1.8-0.6-2.9
	c0.7-0.6,1-1.2,1.1-2c0.4-3.9,0.4-3.9,3.9-5.8c-2-1.9-1.9-3.1,0.7-4.5c1.4-0.8,1.1-3,1.5-4.5c1-3.3,3.1-5.5,5.5-7.4
	c1.8-1.5,3.6-3,6.5-2.8c2.2,0.1,4.6-1.5,6-3.8c0.8-1.2,1.8-2.6,3.4-1.4c1.5,1.1,1,2.6,0.1,3.9c-1.6,2.5-4.4,3.3-6.8,4.6
	c-3.2,1.8-5.9,3.7-8.2,6.8c-1,1.4-1.5,4.3-4.2,4.3c-0.1,0-0.2,0.1-0.2,0.2c1.4,3.1-1.6,4.8-2.4,7.2
	C392.7,234.4,392.9,238.6,397,242.8z"/>
<path fill="#F0EEE8" d="M322.6,187c-1.7,1-1.8,2.5-2.4,3.9c-0.2,0.5-0.5,1-1.1,0.9c-0.3-0.1-0.8-0.6-0.8-0.8
	c0.6-1.6-0.5-2.2-1.6-2.8c-0.2-0.1-0.4-0.4-0.4-0.5c1.4-2.7-0.5-4.6-1.5-6.9c-0.8-1.8,0.3-2.4,4.9-3.4c-2.4,1.8-0.9,2.8,0.2,4.3
	c0.5-1.2,0.2-2.6,1.5-3.4c0.9,1.1,0.9,2.4,1.2,3.7c0.3,1.3,0.3,2.7,1.9,3.7c-0.3-2.7-1.5-5.1-1.1-7.7c0.1-0.9,0.2-2.4,0.9-2.3
	c1.1,0.1,2.5,0.9,2.6,2.3c0.2,3.8,2.6,6.1,5.4,8.2c0.3,0.2,0.5,0.6,1.2,1.4c-5.3-0.1-4.8,4.2-5.6,7c-1,3.4-2.8,6.5-2.8,11
	c-1.9-2.5-3.2-4.3-4.5-6.1c-0.2-0.3,0-0.8-0.1-1.2c2.1,0.2,2.3-3.3,5.3-2.2c-1.3-1.9-2.4-0.9-3.3-0.8c-1,0.1-2,1.1-2.6-0.3
	c-0.5-1.4,0.8-1.7,1.7-2.2c0.5-0.3,0.9-0.8,1.5-1.1c1.4-0.9,3.3-1.7,0-2.7C322.7,188.9,322.8,187.8,322.6,187z"/>
<path fill="#F0EEE8" d="M137.2,208.2c-0.5,0-1,0-1.5,0c-0.5,0-1.1-0.5-1.3,0.1c-0.2,0.5,0,1.2,0,1.8c2.3-0.4,3,2.2,4.8,2.6
	c2.3,0.6,4.5,0.9,6.9-0.6c2.3-1.5,4.8-1.1,7.4,0.5c2.8,1.8,0.7,3.7,0.5,5.4c-0.2,2-2.4,2.1-3.9,1.6c-1.1-0.4-1.8-0.3-2.9-0.1
	c-2.6,0.5-5.6,1.7-8.1-0.5c-0.9-0.8-1.4,0.5-2.2,0.5c-3-0.1-5.1-2.7-4.3-5.9c0.5-1.8,0.1-3.2-0.6-4.7c-0.5-1.2-0.9-1.8-2.5-1.4
	c-2.9,0.8-3.7-1.8-4.5-3.6c-0.5-1.4,0.6-2.2,2-1.9c1.3,0.4,2.9,0.6,3.7,2c0.3,0.5,0.6,1.4,1.3,1.2c1.8-0.7,2.9-0.3,3.6,1.6
	c0.2,0.5,1.2,0.6,1.8,0.9C137.2,207.8,137.2,208,137.2,208.2z"/>
<path fill="#F1EEE8" d="M79.8,220.2c1.4-0.2,2,0.3,2.7,0.7c1.3,0.8,2.4,1.6,4.4,1.2c2.5-0.6,3.3,2.2,4.4,3.7c1,1.5-1.1,1.9-2,2.4
	c-3.2,2.2-5.9,4.8-6.7,8.7c-0.5,2-2.5,2-3.7,2.8c-1.3,0.9-1.2-1.2-1.7-1.9c-1.5-2-1.9-5.8-1.7-8.3c0.2-2.4,1.6-4.5,0.7-7.4
	C75.3,219.7,79.1,221.4,79.8,220.2z"/>
<path fill="#F0EDE8" d="M502,410c0.9,0.7,2,1.2,2.6,2c0.7,0.8-0.4,1.7-0.8,2c-1,0.7-1.6,1.7-0.8,2.6c1.9,2.4,0.4,4.4-0.7,6.2
	c-0.7,1.3-1.4,2.4-1.8,3.8c-0.4,1.4-1.3,2.4-3,1.4c-1-0.7-2.1-0.6-3.3-0.7c-3.3-0.3-6-2.9-6.3-6.2c-0.1-1.1-0.1-2.3,1.4-2.2
	c2.7,0.2,4.4-2,6-3.3c1.9-1.5,4.3-2.4,5.6-4.7C501,410.5,501.5,410.4,502,410z"/>
<path fill="#F1EEE8" d="M384.2,448.5c-1.1,1.9-1.2,4.2-1.9,6.4c-1,3-1.9,6.1-2.8,9.1c-1,3.3-2.7,4.6-4.9,3.8
	c-1.9-0.7-3.4-4.5-2.3-6.6c1.2-2.4,2.1-4.5,1-7.3c-0.5-1.2,0.4-2.7,1.6-3.1c2.8-0.8,4.6-2.6,6.2-4.9c0.4-0.5,0.5-1.8,1.6-1.5
	c0.9,0.3,0.8,1.3,1,2.1C383.8,447.2,384,447.8,384.2,448.5z"/>
<path fill="#F0EEE8" d="M98.8,216.5c-1.9-2-3.8-0.1-5.4-0.9c-0.1,0-0.3,0.3-0.5,0.3c-1.6,0.1-3.8,0.3-4.4-1.2
	c-0.8-2,2.1-0.8,2.7-2.1c-0.5-1-1.6,0.5-2-0.7c0.5-1.1,2.1-0.3,2.7-1.5c-0.4-1-2,0.1-2.1-1c-0.1-1.2,1-1.1,1.8-1c0.1,0,0.2,0,0.3,0
	c0.5-0.4,2.1-0.8,2.3-0.7c2.3,0.1,3.6,1.7,4.1,3.5c0.6,2.4,2.4,1.7,3.9,2c0.7,0.1,1.4-0.7,0.9-1.2c-0.9-1.1-0.8-2.1-1-3.4
	c-0.4-2.7-0.6-2.6,0.9-5c0.8,1.4,0.8,2.9,1.2,4.4c0.4,1.5,0.9,2.8,2.8,1.9c0.8-0.4,1.5-0.2,1.8,0.6c0.7,1.8-0.1,3.5-0.7,5.1
	c-0.4,1.2-1.5,1.4-2.8,1.2c-2.2-0.3-4.2,0.5-5.9,2.1c-0.4,0.4-0.8,0.7-1.2,1c-1.1,0.6-2.2,1.3-3.5,0.4c-0.5-0.4-1.2-0.9-0.8-1.5
	c0.6-1,1.6-1.6,2.8-1.7C97.4,216.9,97.9,216.8,98.8,216.5z"/>
<path fill="#F0EEE8" d="M288.8,302.2c2.4-0.6,3.4,0.5,3.9,2.5c0.6,2.2,3.5,3.4,2.7,6.2c0,0.1,0,0.3,0.1,0.3c4.3,0.1,1.5,2.5,1.7,4.3
	c0.2,2.2-1.3,1.8-2.2,1.9c-2.1,0.5-4.5-0.4-6.5,1.2c-0.2,0.2-0.9,0-1.1-0.2c-0.4-0.5,0.1-0.9,0.4-1.3c0.7-1,2.3-0.2,3.1-1.8
	c-1.5,0.2-2.6-0.4-4-0.9c1.5-1.4,1.4-3.5,3.1-4.9c1.2-1,0.1-3-0.7-3.8c-3.2-3.2-4.3-5.3-3.6-8.9c0.4-2.5,1-3,3.9-3
	c0.3,1.2-1.4,1.5-1.1,2.7c1.1,0.8,3.2-1,3.4,0.6C292.1,299,290.7,300.7,288.8,302.2z"/>
<path fill="#A7D1DD" d="M371.6,401.4c0.1-3.2-2.6-4.4-4.6-6c-1.4-1.1-2.6-1.9-2.8-3.8c-0.1-1.2-0.9-2-1.7-2.9
	c-0.4-0.4-1.1-0.9-1.2-1.4c-0.6-6.4-5.3-11.1-7-17c0-0.3,0.1-0.6,0.1-0.9c2.7,1.3,1-2.2,2.5-2.2c0.7,4.3,3.4,7.5,6,10.8
	c0.2,0.3,0.6,0.6,0.7,1c1,5.2,4.3,8.9,7.8,12.4c0.5,0.6-0.1,1.1-0.1,1.7c0,2.3-0.3,4.8,2.2,6.1C374,401,372.3,400.7,371.6,401.4z"/>
<path fill="#F0EEE8" d="M254,270c1-0.6,2.1-1,2.3-2.3c-0.6-1.5-2.9,0.5-3-1.4c-0.1-1.5,2.2-1.1,2.6-2.5c1.8,0.5,1.3,2.3,2,3.7
	c1.7-1,2.8-3.7,5.4-1.5c0.2,0.2,2.1-0.8,2.5-1.6c1.2-2,2-0.6,2.7,0.1c3.6,3.7,3.1,5.5-1,8.4c-3.6,2.6-7,3-10.9,1.1
	c-0.2-0.1-1,0.2-0.5-0.6C257.7,271,255.5,270.7,254,270z"/>
<path fill="#F0EDE8" d="M541.8,426.1c5.1,0.8,9.5,3,13.4,6.3c1.2,1-1.3,2.1,0.5,3.1c1.5,0.8,2.2,2.6,4,3.6c-2.6,1.1-3.9,0.1-5.2-1.4
	c-2.8-3.3-3.7-3.4-6.7-0.6c-1.2,1.1-2.4,0.8-3.6,0.1c-1-2.2-3.1-3.8-3.5-6.4C540.5,429.1,540.2,427.4,541.8,426.1z"/>
<path fill="#F0EEE8" d="M335.8,171.1c1.1,0.5-0.2,1.8,0.9,2.4c2.3-2.3,4.4-0.2,5.9,0.9c1.7,1.3,0.2,3.2-1.1,4.5
	c-0.9,0.9-0.9,2.2-2.2,2.8c-2.3,1.1-6.4,0.4-8.8-2.2c1.5,0.1,2.3-0.8,3.2-1.6c-0.8-1.2-1.8-0.5-2.7-0.3c-1.1,0.2-2.9,0.5-2.8-0.8
	c0.1-0.9-2.5-3.2,1.1-3.3c0.9,0,1.1-1.6,1.4-2.6c0.9,2,3.1,2.2,4.2,3.8C335.8,173.7,334.5,172,335.8,171.1z"/>
<path fill="#F1EEE8" d="M468.3,176.9c1.4,0.3,0.8-2.2,2.2-1.5c1.4,0.7,1.1,2,1.2,3.3c0.2,2.1-0.5,4.2-0.3,6.4c0.2,1.9-1.8,2-3.2,1.5
	c-3.1-1.3-6.2-2.7-6.9-6.6c-0.4-2,1.1-3.2,1.9-4.5c0.8-1.4,2.9-1.6,4.5-1.4C469.2,174.2,467.5,176,468.3,176.9z"/>
<path fill="#F1EEE8" d="M463.1,412.2c3.1,0.2,4.9,0.5,6.3,2.5c1,1.5,2.7,2.6,4.3,3.4c3.8,2,5.2,6.1,8.2,8.9c0.9,0.9,1,3.2-0.2,4.3
	c-1.1,1-2.3-0.3-3.3-1c-2.9-2-4.6-4.8-6.3-7.8C469.9,418.8,466.9,415.7,463.1,412.2z"/>
<path fill="#F0EEE8" d="M115.1,229.7c0.2,0.1,0.3,0.1,0.4,0.2c0.8,0.7,1.7,2.1,2.7,0.7c0.8-1.1,0.5-2.4-1-3.3
	c-1.2-0.7,2-1.1,0.4-2.1c1.6-2.1,3.6,0.4,5.5-0.5c1.2-0.5,0.5,1.3,0.3,2c-0.7,2-0.7,2.6,0.7,4.3c1.8,2.2,0.3,6.9-2.5,7.8
	c-0.5,0.2-0.9,0-1.1-0.3c-1.4-2.7-3.7-4.6-5.8-6.6c-0.5-0.5-0.5-1.1-0.3-1.7C114.6,229.9,114.9,229.8,115.1,229.7z"/>
<path fill="#F0EEE8" d="M527.4,357.6c1.2-3.1,3.9-3,6.3-3.2c1.2-0.1,1.8-0.3,2.3-1.4c0.4-0.9,1.1-1.4,2.4-1.8c2.6-0.7,3.9-3.1,4.1-6
	c0.1-1.1-0.2-2.3,1-3c0.5-0.3,1.1,0.1,1.3,0.6c0.6,1.2,1.9,2.4,0.8,3.9c-0.8,1.1-1.5,2.2-1.4,3.7c0.3,4-2.7,5.1-5.6,5.8
	c-1.2,0.3-2.1,0.4-2.8,1.5c-0.2,0.3-0.9,0.7-1,0.3c-1.9-4-4.3-0.3-6.5-0.5C528.1,357.6,527.9,357.6,527.4,357.6z"/>
<path fill="#F0EEE8" d="M464.4,161.9c1.1,1.8,1.9,3.3,3,4.6c1.3,1.6-0.9,2.6-0.3,4c0.8,2.2-1,2.1-2.3,2.5c-1,0.3-1.8,0.9-2.7,1.4
	c-1.3,0.6-2.2,0-3-0.9c-0.7-0.8-1.4-1.7-0.3-2.9c0.7-0.8,1.3-1.9,1-3.1c-0.3-1.5,0.4-2.5,1.5-3.1
	C462.4,163.9,463.2,162.9,464.4,161.9z"/>
<path fill="#F0EEE8" d="M126.7,228.5c0-5.6,3-7.4,8-5.1c0.4,0.2,0.8,0.5,0.9,0.8c0.5,1.2-2.9,6.7-4.2,6.6c-1.4-0.1-1.6,0.2-1.4,1.5
	c0.2,1-0.4,2.2-1.6,2.3c-1.3,0.1-1.1-1.2-1.3-2.1C127,231.1,126.5,229.7,126.7,228.5z"/>
<path fill="#F0EEE8" d="M88.2,207c-1.1-0.6-0.2-2-1.2-2.9c-1.7,1.3-0.5,4.1-2.7,5.2c-0.5,0.3-4.5,0.3-4.9-0.4
	c-1.1-1.6,0.4-1.9,1.3-2.7c1.4-1.4,2.4-3.2,3.6-4.9c0.9-1.3,1.6-2.7,3.7-1.9c0.8,0.3,2.3,1.5,2.3,2.6
	C90.3,203.7,90.3,203.7,88.2,207z"/>
<path fill="#F0EEE8" d="M547.4,211.3c-2.7,2.2-0.3,3.9,0.8,6c-2.4,0.1-5-0.8-7,1.2c-0.5,0.5-1.3-0.3-1.8-0.8
	c-1.9-1.9-1.7-4.2-1.3-6.5c0.2-1.2,1-2.2,2.1-2.5c1.2-0.3,1.6,1,2.2,1.8c0.4,0.6,0.7,1.3,1.7,1.6c0.4-2.2,1-4.3,3.4-1.3
	C547.4,211.1,547.4,211.2,547.4,211.3z"/>
<path fill="#F0EEE8" d="M541.8,426.1c0.3,2.8-1,6,2.1,8.2c0.5,0.4,0.2,2,0.3,2.9c-2.3-0.9-3.7-2.4-4.1-4.9c-0.2-1.3-1-1.7-2-2
	c-2.3-0.7-4.6-1.6-6.9-2.2c-0.5-0.1-1.4-0.2-1.2-0.5c1.3-2.8-2-2.3-2.5-3.7c2.2-1.9,3.6-1.6,4.5,1c0.9,2.9,2.1,3.3,4.4,1.3
	C538.2,424.5,540,424.5,541.8,426.1z"/>
<path fill="#F0EEE8" d="M593.4,514.7c-0.9-0.4-2.6-0.1-3.3-1.3c-0.8-1.3,0.5-2.3,1.3-3.2c2.8-2.9,6.8-4.7,8.3-8.9
	c0.4-1.2,1.3,0.4,2,0.4c1.3,0,1,1.3,0.7,1.9c-0.5,1.1-1.3,2.1-2,3c-1.9,2.1-3.3,4.4-4.6,6.9C595.4,514.3,594.8,514.9,593.4,514.7z"
	/>
<path fill="#F0EEE8" d="M470.9,194.1c2.3-4.3,1.7-9.4,5.8-12.6c1.2,1.7-0.9,3.2,0,4.7c1.2,0.1,0.6-3,2.5-1.3c2.4,2.1,3,4.4,1.4,5.8
	c-0.7,0.6-1.6,1-2.5,1.2c-1.2,0.3-2.5,0.2-3.6,0.6C473.4,192.7,472.8,194,470.9,194.1z"/>
<path fill="#F0EEE8" d="M111.5,181.7c0.4,0.2,1.3,0.3,1.4,0.7c1.2,2.6,4.3,3.3,5.7,5.5c1.1,1.7,1.2,4.1,1.6,6.3
	c0,0.2-0.4,0.7-0.7,0.9c-0.6,0.3-1.3,0.1-1.6-0.6c-1.1-2.8-3.1-3.9-6.1-3.2c-0.6,0.1-1.1-0.2-1.2-0.7c-0.1-0.3,0-0.9,0.2-1.1
	c2-1.9,2-2.1-0.1-4c-0.4-0.3-0.8-0.7-1.1-1c-0.5-0.5-0.5-1.2-0.2-1.7C109.9,182.1,110.6,181.8,111.5,181.7z"/>
<path fill="#EEEDE8" d="M118.9,212.2c-1.6-0.3-2.7,0.7-4.2,0.1c1.4-1.6,1.3-3.5,0.9-5.7c1.8,0.5,1.7,2.5,3.2,2.9
	c0.4-0.5-0.1-1.1,0-1.5c0.4-1-2.3-2.1-0.2-2.6c1.3-0.3,4.1-1.1,4.2,2c0,2.3,0.7,4.7-0.4,7.1c-0.8,1.7-2,2.4-3.2,1.9
	c-1-0.4-1.2-2-0.4-3.2C118.9,213,118.9,212.7,118.9,212.2z"/>
<path fill="#EFECE7" d="M279.2,314.9c-0.6,0-1-0.1-1.3-0.6c-0.4-0.5-0.1-1.2,0.3-1.3c2.1-0.7,0.7-2,0.4-2.8c-0.5-1.5-1.4-2.7,1.1-3
	c0.9-0.1,0.6-1.2,1-1.8c0.8-1.4,2.1-1.2,3.2-0.8c1.3,0.5,1.7,1.5,1.1,2.7c-0.3,0.7-0.7,1.3-0.6,2.3
	C284.8,312.1,281.7,315,279.2,314.9z"/>
<path fill="#93C6D4" d="M138.9,192.1c0.6-2.3,1.2-4.7,0.6-7.7c1.4,1.1,0.5,2.1,1.2,2.8c0.2-0.1,0.5-0.2,0.6-0.4
	c0.7-1.2,1.4-2.2,2.5-3.1c1.9-1.5,1.7-3.8-0.7-4.4c-1.6-0.4-1.5-1.1-1.6-2.2c-0.2-2-1.3-4-0.7-6.1c0.6,0.9,1.1,2,2.4,1.2
	c-0.7,2.4-1.4,4.6,1.3,6.5c1.8,1.3,1.9,4,3.4,5.8c1,1.2,1.7,1.6,3.3,0.8c-0.5,1.4-2.6,1.7-1.3,3.6c-2.3-1.9-4.6-3.8-7-1.7
	c-1.4,1.2-3,3.3-1.5,5.7c-0.7,0.6-1.1,0.3-1.2-0.5C140.1,189.3,139.3,192.6,138.9,192.1z"/>
<path fill="#8DC2D1" d="M54.6,293.9c0.6-1,2.7-0.9,1.6-3c2.9,4,4.3,8.7,8,11.8c0.3,0.3,0.2,1.2,0.3,1.8c-2.9,1.6-2.4-1.9-3.7-2.5
	c-1.1,0.3-0.3,1.3-0.5,1.5c-2.9-1.4-4.5-3.9-5.8-6.6C54.1,295.8,53.5,294.9,54.6,293.9z"/>
<path fill="#F0EEE8" d="M141.8,274.6c1.9-1.9,1.4-4.1,1.7-6.2c0.1-0.7-0.1-1.6,0.7-2c1.2-0.6,0.8,1,1.3,1.2c2.9,1.1,5,3,6.6,5.6
	c0.3,0.5,1.7,0.4,0.8,1.5c-0.6,0.8-1.5,0.4-1.9-0.1c-1.7-2.2-2.9-1.9-4.1,0.5c-0.5,0.9-1.5,2.8-2.5,0.1
	C143.9,274.2,142.7,275,141.8,274.6z"/>
<path fill="#EFEDE8" d="M196.6,315.2c0.8,2-2.3,3.4,0.1,5.2c0.7,0.5,1.1,1.2,2,1.1c2.3-0.4,2,1.5,2,2.6c0,1.5-1.4,2.6-2.7,2.2
	c-2.2-0.6-4.5-0.2-6.9-0.9C193.3,322.2,193.3,317.9,196.6,315.2z"/>
<path fill="#F0EEE8" d="M604.6,500.4c0.3-0.8-0.1-1.5-0.8-2c-0.9-0.5-1.3-1.2-0.4-2c1.3-1.1-0.5-4.1,1.9-3.8c1.2,0.2,2.3,2,4.2,1.6
	c0.7-0.1,0.6,1.2,0.2,1.5c-2,1.4-2.3,3.8-3.4,5.7c-0.3,0.5-0.7,1.2-1.5,0.8C604,501.8,604.4,501.1,604.6,500.4z"/>
<path fill="#EFEDE8" d="M546.9,323.9c-1-1.2-0.6-2.3-0.6-3.4c-0.1-2.1,0.5-4.1-0.4-6.3c-0.6-1.7-0.1-3.5,2.1-5.1
	c-0.3,3.9,0.6,7.1,1.4,10.4C550,321.8,546.8,321.9,546.9,323.9z"/>
<path fill="#F1EEE8" d="M473.6,409.9c2.6,0.9,4.7,2.2,4.3,5.4c-0.1,1.3,1.2,2.1,0.9,3.4C474.2,417.7,471.8,413.6,473.6,409.9
	L473.6,409.9z"/>
<path fill="#EFEDE8" d="M543,338.4c2.4-1.8,2.5-4,2.8-6.6c1.7,1.7,3,3.3,5.2,3.6c0.8,0.1,0.7,1.4,0.5,1.4c-2,0.2-2.6,3.8-5.3,2
	C545.6,338.3,544.6,338.5,543,338.4z"/>
<path fill="#F0EEE8" d="M159,230.1c-1.4-1-3.1,1.4-4.5-0.2c-0.8-1-1.3-2.3-1.7-3.5c-0.3-0.8,0.3-1.2,1.3-1.2c3.2,0.1,6.3,2,6.4,4.1
	C160.6,230.5,159.9,230.4,159,230.1z"/>
<path fill="#93C6D4" d="M147.5,169.7c-0.1-1.5,0.6-2.3,2.2-2.3c0.6,0.8-0.9,1.1-0.4,1.8c5.9,0.2,5.8-6,9.2-8.5
	c-0.6,1.2-1.5,2.4-1.8,3.7c-0.8,3,2.6-0.2,2.6,2.1c-1.2,0.7-4.2-0.1-3.5,3.1c-1.9,0.3-3.5,1.7-5.6,1.5
	C149.4,170.6,148.4,170.2,147.5,169.7z"/>
<path fill="#F0EEE8" d="M122.2,189.1c-0.2-0.9-0.7-1.5,0.1-2c0.8-0.5,1.6,0,1.9,0.6c1,1.7,3.7,1.9,3.4,4.8c-0.2,1.9-1.3,2-2.3,2.3
	c-1.3,0.4-1.3-0.7-1.4-1.7C123.8,191.5,121,191,122.2,189.1z"/>
<path fill="#EDEDE7" d="M512.2,423.2c-0.8,1.2-2.9,1.8-1.2,4c0.4,0.6,1.5,2,0,2.6c-1.3,0.5-1.1-1.3-1.8-2c-0.3-0.3,0-1-0.9-1.2
	c-1.6,1.2,0,3.3-1.4,4.9c-0.9-1.2-0.3-2.8-1.4-4c-0.4-0.4,0.4-2.1,0.7-3.1c0.6-1.9,1.5-0.4,2.3-0.3c0.6,0.1,1.2-0.2,1.8-0.4
	C511.1,423.5,511.6,423.3,512.2,423.2z"/>
<path fill="#E9E6E5" d="M179.3,538.1c-2.9-0.7-5.8,0.1-9-0.6c2.3-1.1,2.7-2.5,1.5-4.4c-0.5-0.8,0.1-1.2,0.7-1.4
	c0.8-0.3,1.8-0.3,2.1,0.7C175.3,535.1,177.6,536.3,179.3,538.1z"/>
<path fill="#EFEDE8" d="M497,436.5c-4.8,0.2-9-1.1-13.1-2c-0.7-0.1-1.5-0.7-1.3-1.5c0.2-1,1.4-0.8,1.8-0.5
	C488.1,435.1,493.2,432.5,497,436.5z"/>
<path fill="#8BC2D1" d="M399,170.4c0.6-0.5,0.7-1.3,0.5-2c-0.4-1.8,0.6-2.6,2.1-2.6c1.7,0.1,2.4-0.7,2.6-3c0.4,2,1,2.9,1.6,3.9
	c1,0.2,1,1.1,1.2,1.8c-1.1,0.8-2.2,1.7-3.3,2.5c-1.2-0.6,0.2-3.2-1.3-2.6c-1.9,0.7,0.9,2,0.5,3.2c-1.8,0.3-3.5,0.5-3.6,2.8
	c0,0.6-0.3,1.3-1.1,0.7c-1.1-0.8-2.1,0.6-3.3,0c1.1-0.9,1.6-2,0.7-3.3c-0.5-0.7-0.2-1.1,0.4-1.4c0.1,0,0.3,0,0.4,0.1
	c0.8,0.3,1.5,1.7,2.3,0.2C398.8,170.6,398.9,170.5,399,170.4z"/>
<path fill="#EFEDE8" d="M554.2,507.2c-2.2-0.7-2.2-2.9-2.9-4.7c-0.2-0.5,0.1-1.7,0.5-1.3c1.6,1.6,4.3-1.6,5.3,1.3
	C557.7,504,555.6,507,554.2,507.2z"/>
<path fill="#EDEDE7" d="M147,381.4c3.3-2.7,6.8-1.7,16.7,3.8c-3.2,0.9-3.2,0.6-6.6-1.6C154.2,381.8,150.9,380.1,147,381.4z"/>
<path fill="#EFEDE8" d="M332.8,196.3c1.2-1.1-1.5-4.6,2.3-4c1.5,0.3,2.7,2.1,2.8,3.7c0.1,0.8-0.3,2.3-1.9,2.3
	C336,196.1,332.3,199.5,332.8,196.3z"/>
<path fill="#EFEDE8" d="M98.3,198.8c-1.4,0.1-2.1-0.6-2.5-1.6c-0.3-1-0.4-2.1,0.7-2.7c1-0.5,2-0.9,3.1-1.3c0.6-0.2,1.5-0.7,1.8,0.3
	c0.3,0.8-0.5,0.9-1.1,1.1c-0.8,0.2-0.6,0.6-0.2,1.1C102.3,198.6,99.2,198,98.3,198.8z"/>
<path fill="#EFEDE8" d="M122.6,247.1c1.7,1.2,2.7,2.4,3.4,4c0.3,0.6,1.2,1,0.3,1.8c-0.6,0.5-1.2,0.8-2,0.5c-0.4-0.1-0.8-0.3-1.2-0.4
	c-1.8-0.7-4.2-1.1-1.6-3.7C122.1,248.8,122.2,247.9,122.6,247.1z"/>
<path fill="#EFEDE8" d="M130.3,216.3c-0.1,1,0.3,2.5-1.2,2.3c-1.6-0.1-3.5-1-3.6-2.7c-0.1-1.3,0.9-3.3,2.7-3.1
	C129.8,213,130.3,214.8,130.3,216.3z"/>
<path fill="#EAEBE7" d="M511.4,391.2c-0.6,1.8-2.1,3.3-1.5,5.4c0.1,0.4-0.6,0.8-1.1,0.2c-1.1-1-1.2-6.8-0.3-7.9
	c0.5-0.5,0.9-0.2,1.4-0.1C511.5,389,510.7,390.5,511.4,391.2z"/>
<path fill="#E9EBE7" d="M378.7,172.7c0.7-2.3,4.3-2.1,3.8-5.4c-0.1-0.7,0.5-1.2,1.1-1.3c1.2-0.2,1.3,1.4,2.4,1.6
	c0.6,0.1,0.2,0.9-0.1,1.2c-1.7,1.5-4.5,2-4.9,4.9C380.1,173.3,379.2,172.9,378.7,172.7z"/>
<path fill="#EEEDE8" d="M555.4,214.1c1.8-0.5,3.1,1.4,5,1.4c0.4,0,1,0.5,0.9,1.1c-0.1,0.8-0.7,1.2-1.4,1.5c-1.6,0.6-5.8-1.5-6.1-3.1
	C553.4,213,554.8,214.7,555.4,214.1z"/>
<path fill="#EFEDE8" d="M215.3,149.2c-0.5,0.8-0.5,2.5-1.7,2.1c-2.1-0.8-2.7-2.9-3-5c-0.2-1,0.6-1.3,1.4-1.1
	C214,145.7,214.8,147.3,215.3,149.2z"/>
<path fill="#EEEDE7" d="M511.7,407.6c2-0.7,3.7-0.8,5.3-1.7c1.5-0.9,1.2,1,1.4,1.7c0.7,2-1.4,2.5-2.2,3.3c-0.8,0.7-1.5-0.6-1.6-1.6
	C514.4,407.7,512.9,408.4,511.7,407.6z"/>
<path fill="#ECECE7" d="M403,171.6c-1.2-0.7-3.1-0.7-2.6-2.9c0.3-1.9,1.6-1.8,2.9-2c2.1-0.4,2.3,0.5,1.6,2.1c-0.4,0.7-0.6,1.5-1,2.2
	C403.5,171.2,403.2,171.4,403,171.6z"/>
<path fill="#8BC2D1" d="M394.3,160.3c0,0.9-1.3,1.7,0.2,2.2c1,0.4,1.6-0.3,2.1-0.9c0.9-1,4.9-1.6,5.7-0.7c0.2,0.2,0.3,0.6,0.2,0.8
	c-0.1,0.2-0.6,0.5-0.7,0.5c-2.2-1.2-3.6,0.8-5.3,1.3c-1.1,0.3-2.2,0.6-3-0.6C392.7,161.8,392.7,161,394.3,160.3z"/>
<path fill="#EAE8E6" d="M166.9,386.1c2.6-0.4,5.1-0.1,7,2C169.3,390.1,167.7,389.6,166.9,386.1z"/>
<path fill="#F1EEE8" d="M312.4,299c1,0.2,1.9,1.2,1.7,1.6c-0.7,1.6-1.7,2.9-2.6,4.4c-1.1-0.9-1.6-2-1.6-3.3
	C309.9,300,311.3,299.6,312.4,299z"/>
<path fill="#EAEBE7" d="M69.5,318c3.9-0.1,5.7,2.6,7.5,5.3C73.6,322.8,71.9,319.9,69.5,318z"/>
<path fill="#8DC2D1" d="M64.6,305c0.9-0.5,0.4-1.5,1-2.1c1.2,0.4,0.9,1.4,0.6,2c-1.2,2.3-0.7,3.6,2,4c0.6,0.1,1.1,0.5,1.3,1.2
	c-1.4-0.2-2,2.4-3.7,0.9C64,309.2,64.7,307,64.6,305z"/>
<path fill="#F0EEE8" d="M547.4,211.3c0-0.1,0-0.2,0-0.3c2,0,3.7,0.4,3.8,2.7c0,1-0.1,2.5-1.7,2.4c-1.4-0.1-2.1-1.2-2-2.6
	C547.6,212.8,548.2,212,547.4,211.3z"/>
<path fill="#EDEDE8" d="M611.8,241.4c0.1,0-0.3,0-0.5-0.2c-0.5-0.6-0.1-1.2,0.3-1.6c1.1-1.3,2.5-1.8,4.1-1.4
	c0.7,0.2,1.4,0.7,1.4,1.5c0.1,1-1,1.2-1.7,1.4C614.3,241.3,613.2,241.3,611.8,241.4z"/>
<path fill="#93C6D4" d="M145.3,194c0.2,0.2,0.7,0.5,0.6,0.6c-0.3,1.1-1.3,2.4,0.6,2.9c1.7,0.5,1.8-1.3,2.3-2.3
	c0.3-0.5,0.4-1.1,0.8-1.5c0.4,1.8-0.3,3.3-1.4,4.5c-1.4,1.5-3.3,1.2-4.2-0.7c-0.4-1-0.9-1.9-1.8-2.4
	C143.1,194.5,144.6,195.2,145.3,194z"/>
<path fill="#EEEDE8" d="M95.7,190.8c1-1.9,2.9-1.7,3.9-2.9c0.6-0.8,1.3-0.1,1.8,0.4c0.5,0.5,1.1,1,0.9,1.9c-0.2,0.8-0.9,1.1-1.7,1.1
	C99,191.2,97.5,191,95.7,190.8z"/>
<path fill="#EDEDE7" d="M203.4,247.8c-0.3,1.4-1.4,1.6-2.3,1.9c-0.3-1.3-2.6-1.2-2.2-3.1c0.2-0.8-0.1-1.8,1.2-1.6
	C201.8,245.3,202.5,246.7,203.4,247.8z"/>
<path fill="#93C6D4" d="M150.3,171.1c-0.3,0.6-1.7,0.9-0.9,2c1.4,1.9,2,4.4,4.1,6.1c-1.5,0.4-2.2-0.3-2.7-1.4
	c-1.3-3-3.2-5.2-6.6-5.6C146.1,171.8,148.2,171.4,150.3,171.1z"/>
<path fill="#EEEDE8" d="M437.5,404.7c0.8,1.4,1.6,2.5,2.1,3.7c0.6,1.3-0.4,1.9-1.4,2.3c-1.3,0.6-1.7-0.5-1.9-1.4
	C436.2,407.8,436.3,406.3,437.5,404.7z"/>
<path fill="#EFEDE8" d="M162.6,256.9c0.2,1.5-0.5,2.3-1.9,2.5c-1.3,0.2-1.6-0.9-1.6-1.8c0.1-1.3,0.5-2.7,2.2-2.8
	C162.6,254.9,162.5,256.1,162.6,256.9z"/>
<path fill="#EFEDE8" d="M548.5,226.9c-0.2,1.3-1.1,1.3-1.9,1c-1-0.4-2.6-0.4-2.6-2c0-1.1,0.9-2,2.1-1.7
	C547.5,224.6,548.4,225.5,548.5,226.9z"/>
<path fill="#EDEDE7" d="M407.1,168.5c-0.7-0.4-0.9-1.1-1.2-1.8c1.4-1.1,3.1-1.9,3.4-4.1C411.6,165.4,411.1,166.5,407.1,168.5z"/>
<path fill="#EEEDE8" d="M128.5,195.9c0.8,0.2,2.1-0.4,2,1.1c-0.2,1.5-1.6,1.3-2.7,1.3c-0.9,0-2.2,0-2-1.2
	C126,195.5,127.5,196.1,128.5,195.9z"/>
<path fill="#EEEDE8" d="M109.5,229c-1.1-0.6-2-1.6-2.3-2.7c-0.3-1,0.9-1.2,1.7-1.2c1.2,0,2.1,0.4,2,1.7
	C110.8,227.7,110.6,228.6,109.5,229z"/>
<path fill="#F1EEE8" d="M473.5,410c-3.2-1.1-4.5-3.2-3.6-6.4C471.3,405.9,472.4,407.9,473.5,410C473.6,409.9,473.5,410,473.5,410z"
	/>
<path fill="#EEEDE8" d="M458.2,174.9c0.7,0.6,2.4,0.1,2.4,1.7c0,0.8-0.8,1.9-1.5,1.6c-0.9-0.4-2.3-0.9-2.2-2.4
	C456.9,175,457.5,174.9,458.2,174.9z"/>
<path fill="#8BC2D1" d="M396,170.4c0-0.3,0-0.6,0-0.9c0-1.2,0.7-2.1,1.7-2.1c1,0,0.7,1.3,1,2c0.2,0.4,0.3,0.8,0.4,1.1l-0.1,0.1
	C398,171.5,397,171.1,396,170.4L396,170.4z"/>
<path fill="#93C6D4" d="M140.9,171.1c-2.4-0.3-1.6,1.6-1.4,2.9c-2.6-0.6-0.2-4.6-3.5-4.3C138.2,168.4,139.3,170.4,140.9,171.1z"/>
<path fill="#93C6D4" d="M142.2,192.8c0.7-1.9,2.6-0.4,3.5-1.6c0.4,1.2-0.5,1.9-0.4,2.8C144.1,194,142.8,194.1,142.2,192.8z"/>
<path fill="#80BCCD" d="M66.2,247.4c-1.3,2-3.8,2.3-5.4,4c0.6-2.3,2.6-3,4.4-4C65.5,247.3,65.8,247.4,66.2,247.4z"/>
<path fill="#F1EEE8" d="M246.7,243.4c0.8-1.5,1.9-2,3.3-2c0.4,0,0.7,0.6,0.4,0.9C249.5,243.4,248.3,243.7,246.7,243.4z"/>
<path fill="#84BDCD" d="M145.3,237.3c1.9,2.9-0.9,2.9-2.4,3.8c-0.5-1.8,2.9-1.1,1.7-3.1C144.8,237.8,145.1,237.6,145.3,237.3z"/>
<path fill="#91C3D0" d="M191.8,157.1c1.7,0.9,2,2.7,2.8,4.1c-1.8-0.4-1.8-2.3-2.8-3.2C191.8,157.7,191.8,157.4,191.8,157.1z"/>
<path fill="#93C6D4" d="M141.5,168.5c0.7-1.1,1-2.5,2.5-3.7c-0.2,2-1.8,3.3-1,5C142.3,169.6,141.8,169.2,141.5,168.5z"/>
<path fill="#AAD2DE" d="M386.7,327.4c1.2,0.1,2.7-0.2,2.9,1.5c0.2,1.4-0.7,2.2-1.9,2.8c-2.2,1.1-2.9,3.5-1.1,5.1
	c1.5,1.3,1.8,2.8,2.1,4.5c0.6,2.9,2.1,5.5,2.3,8.6c0.1,1,0.1,1.3-0.7,1.7c-2.9,1.3-5.4,0.6-7.8-1.3c-1.9-1.5-0.9-3.4-0.4-5.1
	c0.4-1.3,0.7-2.5-0.4-3.4c-2.5-2-2.2-5.2-3.6-7.7c-0.3-0.5-0.1-1,0.1-1.5C378.9,331.5,385.3,327.4,386.7,327.4z"/>
<path fill="#B4D6DF" d="M488.9,302.8c0.8,6.2-5.2,13.3-9.7,12.1C484.1,312.3,486.7,307.8,488.9,302.8z"/>
<path fill="#ACD3DE" d="M353.4,286c0,1.8-1.9,2.6-2.4,2.4c-1.7-0.5-1.5-2.6-2.2-4c-0.4-0.8,0.7-1.7,1.4-1.5
	C351.8,283.3,353,284.4,353.4,286z"/>
<path fill="#AFD4DF" d="M147.1,329.3c1.6-0.1,3,0.4,4.6,0.7c1.4,0.3,2.2,1.3,2.5,2.5c0.4,1.5-1.2,1-1.8,1.5
	c-0.4,0.3-0.7,0.8-0.8,1.2c-0.2,0.9-0.4,2.3-1.3,2.1c-0.9-0.2-1.1-1.9-2.6-1.7c-0.3,0,0.3-1,0.5-1.5c0.3-1,0.2-1.8-0.8-2.4
	c-1-0.6-1.8-0.5-2.4,0.4c-1.2,1.4-2.5,2.8-1.8,4.9c0.2,0.6,0.2,1.3,0.1,1.8c-0.2,0.9-0.5,2-1.7,2c-1.3,0-1.3-1.2-1.2-2.1
	c0-2,0-3.9,0.3-5.8c0.2-1.5,1.4-2.1,2.7-2.6C144.5,329.7,146,330.4,147.1,329.3L147.1,329.3z"/>
<path fill="#AED4DF" d="M80.8,264.7c-2.1-1.4-4,0.8-6.4,0c3.1-1.9,6.1-2.8,9.1-4c1.1-0.4,1.3,0.3,0.2,2.4c1.2,0.7,2.3,0.1,4.2-0.9
	c-1.2,1.8,0.8,4.6-2.8,3.9c-0.7-0.1-0.9,0.6-1,1.3c-0.2,1-1.1,1.5-1.8,2c-1.4,1-2.9,0.4-3.9-0.5c-1-0.8,0.3-1.8,0.8-2.6
	C79.6,265.9,80.2,265.4,80.8,264.7z"/>
<path fill="#ADD3DE" d="M147.1,329.3c-4.5-0.8-9.1-1.8-14.2-0.6c2-2.9,4.3-4.5,6.6-5.8c2-1.1,4.9,0.5,6.2,3.4
	C146.2,327.2,146.6,328.3,147.1,329.3L147.1,329.3z"/>
<path fill="#B3D6DF" d="M91.6,279.2c3.1,2.4,5.4,2,7.6-0.8c0.8-1,2.2-0.8,3.8,0c-3.6,1-5.4,4-7.9,5.9c-1,0.7-2,1-2.9,1.4
	c-0.9,0.3-1.7,0.1-2.1-0.7c-0.6-1,0.5-1.3,0.9-1.7C92.2,282.2,93,281.1,91.6,279.2z"/>
<path fill="#B4D6DF" d="M124.7,318.1c-0.5-2-1.1-3.6-2.8-5c-1-0.8-1.2-2.1-1.5-3.3c-0.1-0.5,0-1.1,0.6-1.3c0.6-0.2,1.2,0,1.4,0.4
	C123.8,311.8,125.5,314.6,124.7,318.1z"/>
<path fill="#B0D3DF" d="M354.5,421.2c0.7,0.1,1.6,0.1,1.8,1.1c0.2,1.3-2.2,3.7-3.5,3.8c-1.4,0.2-1.4-0.6-1.5-1.6
	C351.1,422.2,352.6,421.6,354.5,421.2z"/>
</svg>
