<?xml version="1.0" encoding="utf-8"?>
<!-- Generator: Adobe Illustrator 18.0.0, SVG Export Plug-In . SVG Version: 6.00 Build 0)  -->
<!DOCTYPE svg PUBLIC "-//W3C//DTD SVG 1.1//EN" "http://www.w3.org/Graphics/SVG/1.1/DTD/svg11.dtd">
<svg version="1.1" id="Layer_1" xmlns="http://www.w3.org/2000/svg" xmlns:xlink="http://www.w3.org/1999/xlink" x="0px" y="0px"
	 viewBox="0 0 612 792" enable-background="new 0 0 612 792" xml:space="preserve">
<g>
	<g>
		<path fill="#FFFFFF" d="M317.1,284.1c-0.2,25.9-1.5,50.9-3.5,75.9c-3.4,43.1-8.5,86-18.7,128.3c-15.9,65.7-90.6,96.1-148.4,66.7
			C80.6,521.5,69.3,442,110.3,392.1c11.3-13.7,26.7-22.9,41.9-31.9C204.3,329.4,260,306.2,317.1,284.1z"/>
	</g>
	<g>
		<path fill="#FFFFFF" d="M481.1,346.4c-0.1,13.9-0.8,27.4-1.9,40.8c-1.8,23.2-4.6,46.2-10.1,69c-8.6,35.3-48.7,51.7-79.8,35.9
			c-35.4-18-41.4-60.7-19.5-87.5c6.1-7.4,14.4-12.3,22.5-17.1C420.4,370.8,450.4,358.4,481.1,346.4z"/>
	</g>
	<g>
		<path fill="#FFFFFF" d="M331.9,142.7c-0.1,8.8-0.5,17.3-1.2,25.7c-1.2,14.6-2.9,29.1-6.4,43.5c-5.4,22.3-30.7,32.6-50.3,22.6
			c-22.3-11.3-26.1-38.3-12.2-55.2c3.8-4.7,9.1-7.8,14.2-10.8C293.7,158.1,312.5,150.2,331.9,142.7z"/>
	</g>
</g>
</svg>
